<?xml version="1.0" encoding="UTF-8"?>
<svg version="1.1" xmlns="http://www.w3.org/2000/svg" width="663" height="663">
<path d="M0 0 C218.79 0 437.58 0 663 0 C663 218.79 663 437.58 663 663 C444.21 663 225.42 663 0 663 C0 444.21 0 225.42 0 0 Z " fill="#03011C" transform="translate(0,0)"/>
<path d="M0 0 C1.24819519 0.00707474 2.49639038 0.01414948 3.78240967 0.0214386 C7.72537023 0.04917698 11.66685176 0.11188103 15.609375 0.17578125 C18.3007446 0.20374795 20.9921535 0.22426469 23.68359375 0.24414062 C30.24320018 0.29466132 36.7996542 0.39256548 43.359375 0.48828125 C43.689375 11.37828125 44.019375 22.26828125 44.359375 33.48828125 C45.49375 31.03390625 46.628125 28.57953125 47.796875 26.05078125 C54.17949883 13.01317674 62.88509712 6.1260544 76.62109375 1.35546875 C88.4926981 -1.39844574 101.82538136 -0.93567493 112.359375 5.48828125 C123.33674612 12.67564244 130.19377919 21.99149383 134.359375 34.48828125 C135.77028609 48.93898111 135.04764994 61.27757119 126.30859375 73.3125 C117.90578518 83.29736489 107.32077989 90.54695232 94.09375 91.796875 C79.41179359 92.09260161 67.16664342 88.68851853 56.20703125 78.5390625 C50.86098703 72.60529249 47.43608186 65.77090899 44.359375 58.48828125 C44.35572937 59.55157654 44.35208374 60.61487183 44.34832764 61.71038818 C44.31124976 71.77267296 44.25333828 81.83465531 44.17547226 91.89670944 C44.13610609 97.06868434 44.10386456 102.24049175 44.08837891 107.41259766 C44.07314052 112.41192735 44.03856864 117.41079622 43.99106598 122.40991974 C43.97632588 124.30906398 43.96833826 126.20827403 43.96749115 128.10747528 C43.95381822 143.40291229 42.36492942 155.24744339 32.359375 167.48828125 C31.83601563 168.13667969 31.31265625 168.78507813 30.7734375 169.453125 C23.3560952 177.72074801 11.13556707 182.82888936 0.17578125 183.65234375 C-13.80966344 184.1446314 -25.5550065 178.90401161 -35.7578125 169.52734375 C-41.95573829 162.81506727 -45.59403654 155.3200976 -47.640625 146.48828125 C-47.91519531 145.49634766 -47.91519531 145.49634766 -48.1953125 144.484375 C-50.66856101 133.39814705 -47.04202758 121.60266522 -41.40625 112.08203125 C-34.64412401 102.14828865 -25.59379259 96.88151896 -14.640625 92.48828125 C-13.320625 92.48828125 -12.000625 92.48828125 -10.640625 92.48828125 C-10.640625 91.82828125 -10.640625 91.16828125 -10.640625 90.48828125 C-11.23488281 90.42511719 -11.82914062 90.36195313 -12.44140625 90.296875 C-23.36866917 88.68242714 -32.91577126 82.19968915 -39.640625 73.48828125 C-41.91492931 69.59815717 -43.85054092 65.62143716 -45.640625 61.48828125 C-46.01574219 60.76125 -46.39085937 60.03421875 -46.77734375 59.28515625 C-49.96173796 48.96829536 -49.07477545 34.48350573 -44.1796875 24.953125 C-33.76072775 8.26692296 -19.86384654 -0.43263388 0 0 Z " fill="#A158FE" transform="translate(287.640625,285.51171875)"/>
<path d="M0 0 C0.91515884 -0.0071553 1.83031769 -0.01431061 2.77320862 -0.02168274 C4.26858658 -0.02571609 4.26858658 -0.02571609 5.79417419 -0.02983093 C6.84998184 -0.03640213 7.90578949 -0.04297333 8.99359131 -0.04974365 C12.49018934 -0.06946405 15.98674439 -0.08113811 19.48338318 -0.09111023 C21.27765904 -0.09722352 21.27765904 -0.09722352 23.10818291 -0.10346031 C29.44263918 -0.12431825 35.77707382 -0.13861975 42.11155701 -0.147995 C48.63923348 -0.15904322 55.16656757 -0.1934261 61.69412327 -0.23316669 C66.72577527 -0.25937561 71.75734634 -0.26769079 76.78906059 -0.27127647 C79.19428246 -0.27613335 81.59950093 -0.2877215 84.00465584 -0.30631447 C87.38138151 -0.33079021 90.75722982 -0.32972478 94.13401794 -0.32279968 C95.11676697 -0.33560974 96.09951599 -0.3484198 97.11204529 -0.36161804 C110.0071265 -0.26584169 120.46437318 5.24959548 129.66697693 14.02217102 C138.78374675 23.57393582 142.80463608 34.96783041 142.62791443 48.11592102 C141.76791974 60.47436323 136.41571787 71.61145254 127.41697693 80.14717102 C117.20448164 88.64857803 107.40864716 91.22518225 94.48020935 92.36811829 C80.52787841 93.68615412 69.43316433 98.75504389 60.27244568 109.50654602 C56.8717833 114.34622554 54.69936512 119.71741312 52.41697693 125.14717102 C51.42697693 127.12717102 51.42697693 127.12717102 50.41697693 129.14717102 C50.41697693 116.93717102 50.41697693 104.72717102 50.41697693 92.14717102 C46.94682068 92.18197571 43.47666443 92.2167804 39.90135193 92.25263977 C36.50552695 92.27609869 33.10971132 92.29427917 29.71385193 92.31196594 C27.37071123 92.3269654 25.02759819 92.34737161 22.68455505 92.37348938 C19.29841751 92.41026387 15.91265415 92.42698639 12.52635193 92.44013977 C11.49459839 92.45562363 10.46284485 92.47110748 9.39982605 92.48706055 C-4.92460725 92.49030594 -17.94946279 88.35722248 -28.47755432 78.44404602 C-34.75915844 71.59138698 -38.49668234 64.15053371 -40.58302307 55.14717102 C-40.76606995 54.49748352 -40.94911682 53.84779602 -41.13771057 53.17842102 C-43.34227546 43.12251101 -40.74666757 32.12692244 -35.93458557 23.18232727 C-27.95421783 11.16564637 -15.09426847 0.08132221 0 0 Z " fill="#FD7161" transform="translate(280.58302307128906,193.8528289794922)"/>
<path d="M0 0 C1.11616699 0.00012085 2.23233398 0.0002417 3.38232422 0.00036621 C4.54940918 0.00548218 5.71649414 0.01059814 6.91894531 0.01586914 C7.99611816 0.01687622 9.07329102 0.0178833 10.18310547 0.0189209 C14.20443792 0.02415038 18.22575519 0.03811165 22.24707031 0.05102539 C31.23957031 0.07165039 40.23207031 0.09227539 49.49707031 0.11352539 C49.49707031 30.14352539 49.49707031 60.17352539 49.49707031 91.11352539 C35.97738281 91.23727539 35.97738281 91.23727539 22.18457031 91.36352539 C19.36112061 91.39994141 16.5376709 91.43635742 13.62866211 91.47387695 C11.35954547 91.48557302 9.09042035 91.49576267 6.82128906 91.50415039 C5.66842407 91.52461426 4.51555908 91.54507813 3.32775879 91.56616211 C-9.37115493 91.57156763 -18.99425046 87.48404453 -28.50292969 79.11352539 C-37.61442712 69.61983427 -42.38595343 58.88423358 -42.81542969 45.73852539 C-42.51613029 31.47192056 -36.43775356 20.91676219 -26.50292969 11.11352539 C-18.96762833 4.38352342 -10.19428305 -0.02338138 0 0 Z " fill="#F14D1D" transform="translate(281.5029296875,193.886474609375)"/>
<path d="M0 0 C17.82 0.33 35.64 0.66 54 1 C54.0825 9.6625 54.165 18.325 54.25 27.25 C54.28641602 29.95993164 54.32283203 32.66986328 54.36035156 35.46191406 C54.37205062 37.64647636 54.38223955 39.83104747 54.390625 42.015625 C54.41108887 43.12019043 54.43155273 44.22475586 54.45263672 45.36279297 C54.45809667 57.72957823 50.80611278 67.44996841 43 77 C42.47664063 77.64839844 41.95328125 78.29679687 41.4140625 78.96484375 C33.9967202 87.23246676 21.77619207 92.34060811 10.81640625 93.1640625 C-3.16903844 93.65635015 -14.9143815 88.41573036 -25.1171875 79.0390625 C-31.31511329 72.32678602 -34.95341154 64.83181635 -37 56 C-37.18304688 55.33871094 -37.36609375 54.67742187 -37.5546875 53.99609375 C-40.02793601 42.9098658 -36.40140258 31.11438397 -30.765625 21.59375 C-24.00349901 11.6600074 -14.95316759 6.39323771 -4 2 C-2.68 2 -1.36 2 0 2 C0 1.34 0 0.68 0 0 Z " fill="#09CD82" transform="translate(277,376)"/>
<path d="M0 0 C10.97737112 7.18736119 17.83440419 16.50321258 22 29 C23.41091109 43.45069986 22.68827494 55.78928994 13.94921875 67.82421875 C5.54641018 77.80908364 -5.03859511 85.05867107 -18.265625 86.30859375 C-32.94758141 86.60432036 -45.19273158 83.20023728 -56.15234375 73.05078125 C-63.27762666 65.14216914 -68.37757421 55.68794002 -69 45 C-69.07605469 44.02933594 -69.15210938 43.05867188 -69.23046875 42.05859375 C-69.84920266 28.16216448 -64.01667223 16.4970329 -54.875 6.3125 C-41.11581003 -6.83517042 -16.25316623 -9.91168509 0 0 Z " fill="#19BBFD" transform="translate(400,291)"/>
<path d="M0 0 C12.21 0 24.42 0 37 0 C33 2 33 2 30.3359375 2.97265625 C18.5278849 7.31889197 10.39678104 14.59930005 5 26 C3.52751348 29.62599807 2.20342542 33.27646016 1 37 C0.67 37 0.34 37 0 37 C0 24.79 0 12.58 0 0 Z " fill="#030420" transform="translate(331,286)"/>
</svg>
