<?xml version="1.0" encoding="UTF-8"?>
<svg version="1.1" xmlns="http://www.w3.org/2000/svg" width="512" height="512">
<path d="M0 0 C1.08470107 -0.00352835 1.08470107 -0.00352835 2.19131529 -0.00712797 C4.639258 -0.0138391 7.08714788 -0.01335911 9.53509903 -0.01294994 C11.29796437 -0.01624725 13.06082895 -0.01997254 14.82369256 -0.02409142 C19.68746491 -0.03413463 24.55122491 -0.03783194 29.41500616 -0.04048073 C34.65304053 -0.04437691 39.89106506 -0.05395569 45.12909317 -0.0626936 C57.788389 -0.08247722 70.44768565 -0.09252651 83.10699308 -0.10142139 C89.06347988 -0.10580108 95.01996578 -0.1111687 100.97645187 -0.11641026 C120.76850958 -0.13342424 140.56056672 -0.14791951 160.35263062 -0.155159 C165.49143601 -0.157069 170.6302414 -0.15898931 175.76904678 -0.16094494 C177.04632504 -0.16142868 178.3236033 -0.16191242 179.63958696 -0.16241082 C200.34125176 -0.17071517 221.04285887 -0.19605817 241.74449846 -0.22852562 C262.98204498 -0.26156293 284.21956213 -0.27960473 305.45713449 -0.28280324 C317.38790097 -0.2849714 329.3185833 -0.2937647 341.2493248 -0.31926441 C351.40795069 -0.34092597 361.566472 -0.34904427 371.72511837 -0.33929763 C376.91063967 -0.33473975 382.09594497 -0.33672529 387.28143692 -0.35605907 C392.02627927 -0.37359757 396.77074655 -0.37276919 401.51559237 -0.35716178 C403.23434043 -0.35477148 404.95311383 -0.35918236 406.67182299 -0.37099043 C409.00483911 -0.38602925 411.33651245 -0.37649382 413.66949463 -0.36076355 C415.61469454 -0.36222876 415.61469454 -0.36222876 417.59919143 -0.36372358 C422.52613139 0.33979689 425.64336172 2.49210936 428.8989296 6.19672108 C434.72270226 15.69866595 430.75456128 33.6647076 429.8850441 44.50476551 C429.75395154 46.1970249 429.62340128 47.88932636 429.49333942 49.58166528 C429.13790947 54.18603821 428.77482669 58.78977908 428.41037202 63.39344525 C428.01729072 68.37604897 427.63142187 73.35921216 427.2446022 78.34230518 C426.48716084 88.08491014 425.72305886 97.82698155 424.95655932 107.56887761 C424.33359715 115.48822023 423.71315126 123.40775634 423.09448242 131.32743549 C422.96213125 133.02167084 422.96213125 133.02167084 422.82710632 134.75013317 C422.64784699 137.04501232 422.46859447 139.339892 422.28934871 141.63477221 C420.61076938 163.12208264 418.92472719 184.60880237 417.23600863 206.09531799 C415.78826171 224.51785354 414.34649001 242.9408486 412.9091835 261.36420155 C411.23813449 282.7835938 409.56370344 304.20271694 407.88366115 325.62140584 C407.70444047 327.90636023 407.52522284 330.19131485 407.3460083 332.47626972 C407.2578382 333.60038247 407.16966809 334.72449522 407.07882617 335.882672 C406.45872356 343.79142579 405.84099301 351.7003628 405.22415924 359.60937214 C404.47225724 369.24919671 403.71654011 378.88871334 402.95599903 388.52786031 C402.56831422 393.44255345 402.18228911 398.35736145 401.80085373 403.27254391 C401.45125462 407.77683 401.09674051 412.28070199 400.73839699 416.7843006 C400.61001853 418.4083768 400.48339093 420.03259263 400.35875036 421.65695998 C398.28201375 448.67846239 398.28201375 448.67846239 393.22656631 453.67963123 C388.23610159 457.07150767 382.36163817 458.57151153 376.6489296 460.32172108 C375.08553896 460.81969596 373.5228203 461.31978424 371.96069717 461.82172108 C368.38791562 462.96460966 364.8106568 464.09198832 361.22998428 465.20990467 C354.44652019 467.32958162 347.67678029 469.49164909 340.9067421 471.65375233 C330.26546294 475.04843189 319.61941493 478.42770708 308.9692421 481.79437733 C297.50311191 485.41906748 286.03946502 489.05145561 274.5786171 492.69281483 C273.13741954 493.15067055 271.69622183 493.60852578 270.25502396 494.0663805 C265.37692305 495.61617258 260.49887374 497.16612704 255.62084961 498.71616077 C254.29460914 499.13757301 252.96835888 499.55895443 251.64209843 499.98030376 C249.72571491 500.58917393 247.80939963 501.19825884 245.89308548 501.8073473 C243.4797946 502.57293198 241.06578429 503.33625331 238.65098953 504.09708118 C233.81213787 505.62246509 228.98085668 507.15450723 224.18359756 508.80658436 C223.11117058 509.16750927 223.11117058 509.16750927 222.0170784 509.53572559 C220.25834712 510.13058797 218.50579079 510.74363471 216.75415421 511.35907459 C205.81611642 513.67074802 196.51918881 511.20351581 186.16846085 507.73578358 C184.7281484 507.26787972 183.2873065 506.80160302 181.8459816 506.33682728 C178.78358422 505.34579383 175.72494768 504.34418285 172.66891861 503.33368397 C167.8372003 501.73617115 162.99788936 500.16263095 158.15698624 498.59320545 C153.21816828 496.99092146 148.27980874 495.38731537 143.3441658 493.77527332 C129.75912807 489.33872302 116.14271924 485.01052933 102.50784683 480.72949696 C99.04313747 479.64025966 95.5800239 478.54609834 92.11743546 477.45013905 C82.0095702 474.25178511 71.89798758 471.06840401 61.76546097 467.94891834 C57.36563802 466.59202355 52.96990982 465.2221718 48.57474136 463.85028553 C46.52907472 463.21551267 44.48148443 462.58690007 42.43185806 461.96503162 C39.63191169 461.11517263 36.83930975 460.24432979 34.0473671 459.36859608 C33.2366626 459.12868946 32.4259581 458.88878284 31.5906868 458.64160633 C25.65147897 456.74356302 20.08076484 453.91598914 17.06424427 448.1958971 C15.62161448 443.67881923 15.39008758 439.17328673 15.02986526 434.46033192 C14.93991944 433.36597907 14.84997362 432.27162621 14.75730217 431.14411116 C14.45542955 427.44575559 14.1651043 423.74658422 13.87475967 420.04730701 C13.65885069 417.36921427 13.44234268 414.69117555 13.22518253 412.01318455 C12.69017891 405.39561802 12.16432126 398.77735332 11.64175317 392.15879433 C11.20821944 386.66897579 10.7717474 381.179398 10.33340454 375.68996143 C8.43688981 351.93311018 6.5649246 328.1743564 4.70002934 304.41500437 C4.3945854 300.52405996 4.0889666 296.6331293 3.78334576 292.74219878 C2.42872015 275.49594587 1.07490683 258.24962939 -0.27646732 241.00312138 C-0.60219096 236.84629992 -0.92791888 232.6894788 -1.25365829 228.53265858 C-1.334568 227.50014555 -1.41547771 226.46763252 -1.49883922 225.40383121 C-2.81992234 208.5469526 -4.14631444 191.69049594 -5.47479937 174.83419922 C-6.84919738 157.3942358 -8.21889539 139.95390824 -9.58399934 122.51321483 C-10.34652468 112.77260434 -11.11105786 103.03216099 -11.88091087 93.29212666 C-12.53325253 85.03866926 -13.18132399 76.78489044 -13.82389054 68.53066602 C-14.15089957 64.33165859 -14.47986547 60.13283017 -14.81435013 55.93441105 C-15.12117595 52.08256186 -15.42210187 48.23029589 -15.7186084 44.37763903 C-15.87627212 42.34802356 -16.03999227 40.31888127 -16.20403367 38.28977132 C-16.7037872 31.71868879 -17.0528472 25.15342526 -17.16540432 18.56475925 C-17.1909208 17.28572531 -17.21643728 16.00669136 -17.24272698 14.6888988 C-16.76337927 9.51225417 -15.19913654 6.29436613 -11.3510704 2.82172108 C-7.28403353 0.00608016 -4.96883513 0.00685654 0 0 Z M65.0864296 94.13422108 C65.0864296 99.9383465 65.08817661 105.40685637 65.53526688 111.13609791 C65.63479156 112.43550816 65.73431625 113.7349184 65.83685684 115.07370472 C65.94853622 116.48084576 66.06029418 117.88798057 66.17212296 119.29510975 C66.28905072 120.80242404 66.40564394 122.30976431 66.52193069 123.81712818 C66.83662083 127.88327461 67.15611976 131.9490298 67.47664714 136.01471972 C67.81236006 140.28200264 68.14400623 144.54960185 68.47621536 148.8171587 C69.03429505 155.97831378 69.59540709 163.13922618 70.15845108 170.29999256 C70.80853926 178.56812711 71.45431154 186.83658984 72.0976705 195.10525054 C72.71807579 203.07814868 73.34105581 211.05084345 73.96536827 219.02343655 C74.23044775 222.40876314 74.4947185 225.79415141 74.75834846 229.17959118 C75.0689615 233.166421 75.38186191 237.15306506 75.69650459 241.13957882 C75.81135557 242.59917537 75.92545065 244.05883163 76.03871918 245.51855183 C76.19392213 247.5169633 76.35219776 249.51513543 76.51060867 251.51329517 C76.59817901 252.62950339 76.68574934 253.74571161 76.77597332 254.89574432 C77.10430728 258.32070942 77.59984581 261.72813457 78.0864296 265.13422108 C144.7464296 265.13422108 211.4064296 265.13422108 280.0864296 265.13422108 C279.7564296 266.45422108 279.4264296 267.77422108 279.0864296 269.13422108 C278.89269162 270.93765838 278.7364261 272.7452891 278.60571671 274.55438709 C278.52570923 275.63974247 278.44570175 276.72509785 278.36326981 277.84334278 C278.28093597 279.01312168 278.19860214 280.18290058 278.11377335 281.38812733 C278.02640411 282.59935764 277.93903488 283.81058796 277.8490181 285.05852222 C277.66491844 287.62472637 277.4826287 290.1910609 277.30200577 292.75751209 C277.02669203 296.65758855 276.74349017 300.55703531 276.45947647 304.4564867 C276.28126246 306.9544994 276.10351341 309.45254533 275.92627335 311.95062733 C275.79973625 313.68404125 275.79973625 313.68404125 275.67064285 315.45247364 C275.19127538 322.359756 274.98120752 329.21071726 275.0864296 336.13422108 C274.43394241 336.24080036 273.78145523 336.34737965 273.10919571 336.45718861 C265.89982578 337.69377068 258.92432024 339.42405075 251.8833046 341.39203358 C249.58128332 342.02377017 247.27919809 342.65527376 244.9770546 343.28656483 C241.39278049 344.27524516 237.80933379 345.2667538 234.2270546 346.26263905 C230.73955034 347.230174 227.24917826 348.18673883 223.7583046 349.14203358 C222.69150467 349.44199238 221.62470474 349.74195118 220.52557755 350.05099964 C219.52053177 350.32483479 218.51548599 350.59866993 217.47998428 350.88080311 C216.16740646 351.24481724 216.16740646 351.24481724 214.82831192 351.61618519 C209.21179833 352.67733781 204.30388157 352.15922509 198.83154678 350.66547108 C197.64051346 350.34513905 196.44948013 350.02480701 195.22235489 349.69476795 C193.95546829 349.34478748 192.6885817 348.99480701 191.3833046 348.63422108 C190.05551771 348.27462313 188.72748997 347.91591344 187.39923477 347.5580492 C183.91973477 346.61857698 180.442993 345.66930291 176.96692276 344.71722889 C171.39045687 343.1912333 165.81040209 341.67848523 160.22941208 340.16913319 C158.28347235 339.64105101 156.33903727 339.10768802 154.39471817 338.5736742 C153.21629349 338.25334217 152.0378688 337.93301014 150.82373428 337.60297108 C149.785616 337.3187328 148.74749771 337.03449451 147.6779213 336.74164295 C145.04324432 336.02011811 145.04324432 336.02011811 142.0864296 336.13422108 C142.0864296 321.61422108 142.0864296 307.09422108 142.0864296 292.13422108 C121.6264296 292.13422108 101.1664296 292.13422108 80.0864296 292.13422108 C81.55520308 313.53634893 83.03052147 334.93525458 84.7114296 356.32172108 C84.77359665 357.12023487 84.8357637 357.91874866 84.89981461 358.74145985 C85.07705239 361.01187965 85.25700333 363.28206628 85.4379921 365.55218983 C85.53934464 366.8286034 85.64069717 368.10501698 85.745121 369.42010975 C86.1054316 373.34100044 86.57770603 377.23013261 87.0864296 381.13422108 C91.30118147 382.47825931 95.51605117 383.8219278 99.73096085 385.16547108 C100.38816368 385.37498276 101.04536652 385.58449444 101.72248459 385.80035496 C109.78489647 388.3704127 117.8484402 390.9368526 125.91431046 393.49603748 C128.19248191 394.21900345 130.47064383 394.94199946 132.74879646 395.66502476 C134.28118388 396.15135247 135.81358986 396.63762171 137.34601402 397.12383366 C146.52308121 400.03629021 155.69279248 402.96964701 164.85091019 405.94116688 C169.52432093 407.45566618 174.20185108 408.95714634 178.88022232 410.45624256 C181.04698455 411.15424146 183.21176016 411.85843985 185.37442398 412.56903553 C188.36857851 413.5521167 191.36891922 414.51345019 194.37158585 415.47015858 C195.23124954 415.75865681 196.09091324 416.04715504 196.97662735 416.34439564 C206.87009471 419.44030306 214.82287261 416.85535649 224.4301796 413.73187733 C225.52935211 413.38216373 226.62852463 413.03245014 227.7610054 412.67213917 C231.37200369 411.52140571 234.97914776 410.35904667 238.5864296 409.19672108 C241.10104053 408.39326747 243.61593768 407.59070911 246.13110733 406.78900623 C250.0579706 405.53699043 253.9845301 404.28405284 257.90977859 403.02698231 C267.44220649 399.97424961 276.98221465 396.94621957 286.52783585 393.93500233 C287.19035229 393.72600111 287.85286873 393.51699989 288.53546143 393.30166531 C291.7997404 392.27203316 295.0641449 391.24279976 298.3286171 390.2137804 C304.42704135 388.29125588 310.52423831 386.3648447 316.62158585 384.43890858 C318.66723503 383.7928963 320.71288876 383.1468984 322.75854874 382.5009203 C323.59922394 382.23544392 324.43989914 381.96996754 325.30604935 381.69644642 C326.18733757 381.41814487 326.18733757 381.41814487 327.0864296 381.13422108 C330.05120201 350.56259766 332.3666343 319.93446936 334.75633061 289.31384981 C335.21920811 283.3871648 335.68658787 277.46084072 336.15488356 271.53458172 C336.61208299 265.74633956 337.06626463 259.9578657 337.51811105 254.16920322 C337.78567594 250.74197363 338.0543871 247.31484434 338.32616615 243.88794613 C338.62650267 240.09084057 338.92189381 236.29338059 339.21606827 232.49579334 C339.30486252 231.38669605 339.39365677 230.27759876 339.48514175 229.13489246 C339.56494781 228.09182438 339.64475388 227.04875629 339.7269783 225.97408009 C339.79682528 225.08224301 339.86667227 224.19040594 339.93863583 223.2715435 C340.14471244 218.89701019 340.0864296 214.51360565 340.0864296 210.13422108 C272.4364296 210.13422108 204.7864296 210.13422108 135.0864296 210.13422108 C134.5914296 202.70922108 134.5914296 202.70922108 134.0864296 195.13422108 C132.4364296 179.62422108 130.7864296 164.11422108 129.0864296 148.13422108 C200.3664296 148.13422108 271.6464296 148.13422108 345.0864296 148.13422108 C346.83623292 132.39617403 346.83623292 132.39617403 348.2114296 116.63422108 C348.34098038 115.02160389 348.34098038 115.02160389 348.47314835 113.37640858 C348.55435928 112.3167992 348.63557022 111.25718983 348.7192421 110.16547108 C348.79030167 109.24314686 348.86136124 108.32082264 348.93457413 107.3705492 C349.14138586 102.96299883 349.0864296 98.54662081 349.0864296 94.13422108 C255.3664296 94.13422108 161.6464296 94.13422108 65.0864296 94.13422108 Z " fill="#FC490B" transform="translate(48.913570404052734,-0.13422107696533203)"/>
</svg>
