<?xml version="1.0" encoding="UTF-8"?>
<svg version="1.1" xmlns="http://www.w3.org/2000/svg" width="1307" height="1345">
<path d="M0 0 C0.91265625 -0.02578125 1.8253125 -0.0515625 2.765625 -0.078125 C9.28756237 0.63894665 15.05154185 4.39235372 20.6875 7.5625 C21.45980957 7.9941748 22.23211914 8.42584961 23.02783203 8.87060547 C30.45760173 13.04481448 37.81160379 17.34773581 45.16430664 21.65576172 C52.95583796 26.21704511 60.78158742 30.71623543 68.625 35.1875 C83.09978884 43.4411533 97.53222188 51.7671757 111.95898438 60.10449219 C115.18068275 61.96602672 118.40271079 63.82698839 121.625 65.6875 C122.69105469 66.30302734 123.75710938 66.91855469 124.85546875 67.55273438 C133.43995597 72.50453042 142.04580293 77.41824868 150.65472412 82.32736206 C159.69471708 87.48416608 168.69525321 92.70543769 177.67675781 97.96337891 C185.29905935 102.41916436 192.95538392 106.81384552 200.625 111.1875 C211.89448642 117.61487692 223.15125283 124.06322995 234.375 130.5703125 C238.733496 133.0952807 243.11010696 135.58473902 247.5 138.0546875 C249.66667823 139.286438 251.83334531 140.5182081 254 141.75 C254.99418945 142.30123535 255.98837891 142.8524707 257.01269531 143.42041016 C264.94966147 147.96152208 270.27695471 152.2174688 272.75 161.25 C273.03313598 164.30356182 273.02488921 167.34103921 273.01171303 170.40604973 C273.01570909 171.32300621 273.01970515 172.23996269 273.02382231 173.18470573 C273.03482118 176.26787534 273.03159179 179.35086621 273.0284729 182.43405151 C273.03347436 184.66249931 273.03934971 186.89094529 273.04602563 189.1193887 C273.06185778 195.25129013 273.06525809 201.38314579 273.06667423 207.51506519 C273.06998402 213.44594248 273.08263518 219.37679767 273.0950741 225.3076612 C273.12019638 237.44009628 273.13606018 249.57252699 273.14665604 261.70498276 C273.1571782 273.71845312 273.17181009 285.73190688 273.19193649 297.74536514 C273.19318536 298.49219362 273.19443423 299.2390221 273.19572094 300.00848174 C273.20208465 303.80121229 273.20852184 307.59394272 273.21498732 311.38667311 C273.26065573 338.25386717 273.29710093 365.12106662 273.328125 391.98828125 C273.35828644 418.0901773 273.39262381 444.19206239 273.43261719 470.29394531 C273.43384819 471.09845229 273.43507919 471.90295927 273.4363475 472.73184525 C273.44871431 480.81100021 273.46116603 488.89015504 273.47367998 496.96930977 C273.49917064 513.42762871 273.52409446 529.88594848 273.54867554 546.3442688 C273.54980645 547.10100359 273.55093736 547.85773838 273.55210253 548.63740453 C273.6275638 599.17492371 273.68976992 649.71246063 273.75 700.25 C274.78519209 699.64594361 274.78519209 699.64594361 275.84129715 699.02968407 C278.99733041 697.18814734 282.15344965 695.34675802 285.30957031 693.50537109 C286.39521271 692.87187241 287.4808551 692.23837372 288.59939575 691.5856781 C295.89011768 687.33220866 303.18639594 683.08902901 310.5 678.875 C311.55815918 678.26470947 312.61631836 677.65441895 313.70654297 677.02563477 C322.34175727 672.05010652 330.99685355 667.10981315 339.6541748 662.1729126 C347.71226921 657.57624562 355.74400091 652.936862 363.75 648.25 C372.34522672 643.2181931 380.9731213 638.24610928 389.625 633.3125 C401.94741583 626.28558224 414.24138453 619.21057463 426.5234375 612.11328125 C429.78524007 610.2296495 433.04861844 608.34877679 436.3125 606.46875 C437.41190918 605.83525635 438.51131836 605.2017627 439.64404297 604.54907227 C441.66884936 603.38244474 443.69387933 602.21620507 445.71923828 601.05053711 C447.69675592 599.91065578 449.65895176 598.74385551 451.60645676 597.55342293 C454.83672136 595.66139422 458.1545007 594.20049358 461.59825516 592.73686028 C473.11677859 587.69837966 473.11677859 587.69837966 481.13096142 578.51255083 C483.30085053 570.54608129 482.77693096 562.35143337 482.50292969 554.17626953 C482.48604441 551.43825965 482.5055729 548.7007873 482.52363586 545.96281433 C482.54371236 540.08753524 482.47715894 534.21851483 482.35045624 528.34463882 C482.16759953 519.84460899 482.12285818 511.34809202 482.11127022 502.84630547 C482.08912996 489.03992434 481.96312324 475.2365885 481.76806641 461.43164062 C481.57926906 448.04993531 481.42952857 434.66888835 481.33935547 421.28613281 C481.33377549 420.4609624 481.32819551 419.63579199 481.32244644 418.78561641 C481.26238806 409.77297982 481.2106328 400.76029977 481.1606636 391.74760246 C481.14724129 389.35587898 481.13374589 386.96415594 481.12016281 384.57243337 C481.11124451 382.99568239 481.10245084 381.41893071 481.09378377 379.84217833 C481.03799429 369.82658413 480.94680711 359.81215956 480.81648493 349.79725957 C480.75107792 344.74609054 480.69886284 339.6948129 480.65048102 334.64345451 C480.61752128 331.29627691 480.57493925 327.94988166 480.51880074 324.60296822 C480.45839237 320.97183586 480.42266261 317.34123813 480.39251709 313.70974731 C480.3683858 312.65702515 480.34425451 311.60430298 480.31939197 310.51968014 C480.29525472 303.4713717 481.39701199 297.93816605 486.24465156 292.60593712 C491.50363607 287.57644207 498.25479365 284.32399235 504.5625 280.8125 C505.81088555 280.10969529 507.05876104 279.40598388 508.30615234 278.70141602 C510.86851837 277.25442923 513.43252939 275.81042385 515.99755859 274.36816406 C521.64846604 271.18489625 527.26130242 267.93579599 532.875 264.6875 C535.02600096 263.44524201 537.17704263 262.20305452 539.328125 260.9609375 C541.46879389 259.72403429 543.60941894 258.48705521 545.75 257.25 C559.69844368 249.18910696 573.66003888 241.15290574 587.65472412 233.17263794 C595.71263212 228.57605777 603.74417786 223.9367584 611.75 219.25 C621.52502765 213.52751551 631.34786956 207.8915656 641.1875 202.28125 C649.05537405 197.79444263 656.90825402 193.28235242 664.75 188.75 C673.77530835 183.53357521 682.81926748 178.35083171 691.875 173.1875 C700.81875175 168.08773486 709.73689343 162.94627533 718.625 157.75 C732.5969499 149.58322448 732.5969499 149.58322448 738.0625 146.4375 C739.11050781 145.83292969 740.15851562 145.22835937 741.23828125 144.60546875 C746.93227976 141.53265774 752.42201207 141.42176737 758.75 142.25 C763.74547919 143.99809872 768.19563013 146.59530303 772.75 149.25 C773.59046875 149.73307617 774.4309375 150.21615234 775.296875 150.71386719 C780.30823757 153.59646239 785.30035276 156.51041459 790.28125 159.4453125 C796.66702119 163.20766681 803.07862178 166.92380926 809.5 170.625 C810.57266113 171.24366943 811.64532227 171.86233887 812.75048828 172.49975586 C821.37112222 177.46670018 830.01155029 182.39856777 838.6541748 187.3270874 C847.69435523 192.48397645 856.69507624 197.70533409 865.67675781 202.96337891 C873.29905778 207.41916344 880.95531311 211.81397146 888.625 216.1875 C903.09950369 224.44165636 917.53221846 232.76717372 931.95898438 241.10449219 C935.18068275 242.96602672 938.40271079 244.82698839 941.625 246.6875 C942.69105469 247.30302734 943.75710938 247.91855469 944.85546875 248.55273438 C952.25862658 252.82310333 959.67657141 257.06690488 967.10070801 261.30062866 C976.71618757 266.78429663 986.31348429 272.29757396 995.875 277.875 C996.82777832 278.4306665 997.78055664 278.98633301 998.76220703 279.55883789 C1000.5563367 280.60777996 1002.34888992 281.65942433 1004.13964844 282.71411133 C1005.93047945 283.76780736 1007.72565122 284.81415031 1009.52441406 285.85424805 C1010.4109668 286.372854 1011.29751953 286.89145996 1012.2109375 287.42578125 C1013.39502197 288.11281128 1013.39502197 288.11281128 1014.60302734 288.8137207 C1019.68954209 292.21649149 1022.75789463 296.52174346 1024.75 302.25 C1025.00299966 304.76615983 1025.00299966 304.76615983 1025.00726891 307.48125172 C1025.01694224 309.04063692 1025.01694224 309.04063692 1025.026811 310.63152486 C1025.0237138 311.76711534 1025.0206166 312.90270582 1025.01742554 314.07270813 C1025.02422221 315.8898721 1025.02422221 315.8898721 1025.03115618 317.74374646 C1025.04162841 321.10334317 1025.0431257 324.46272584 1025.04076743 327.82232368 C1025.04035927 331.44684182 1025.05139832 335.07132804 1025.06088257 338.6958313 C1025.07749385 345.79589027 1025.08299217 352.89591604 1025.08410732 359.99599282 C1025.08505775 365.76764471 1025.0891678 371.53928564 1025.09550858 377.31093407 C1025.11312147 393.67611952 1025.12234739 410.04127874 1025.12084763 426.40647373 C1025.12072776 427.72978706 1025.12072776 427.72978706 1025.12060547 429.07983398 C1025.12048283 430.40476388 1025.12048283 430.40476388 1025.12035771 431.75646003 C1025.11954483 446.0709057 1025.13868275 460.38524613 1025.1668822 474.69966135 C1025.19561148 489.39906709 1025.20942247 504.09842151 1025.20769465 518.79785603 C1025.20703075 527.04988148 1025.21252279 535.30179661 1025.23405075 543.55379677 C1025.25226316 550.57990781 1025.25660947 557.60585853 1025.2430319 564.63198296 C1025.23650243 568.21581761 1025.23638389 571.79934472 1025.2537384 575.3831501 C1025.27237147 579.27102272 1025.25991389 583.15844645 1025.24447632 587.04634094 C1025.25476344 588.17523926 1025.26505057 589.30413757 1025.27564943 590.46724492 C1025.21215367 597.69808431 1024.24197179 603.40893802 1019.25975931 608.88921911 C1014.46585182 613.48777596 1008.39062617 616.53399035 1002.63012695 619.73876953 C1000.1270692 621.13133706 997.63368538 622.54084781 995.13949585 623.94921875 C993.86005961 624.67144402 992.58013027 625.39279642 991.29971313 626.11328125 C985.4122574 629.42844297 979.57680638 632.82945707 973.75 636.25 C965.15544328 641.28293909 956.52686703 646.25389737 947.875 651.1875 C938.77920013 656.37442426 929.69287737 661.57681506 920.625 666.8125 C919.55894531 667.42802734 918.49289062 668.04355469 917.39453125 668.67773438 C914.17942477 670.53470194 910.96464622 672.39223579 907.75 674.25 C893.80155632 682.31089304 879.83996112 690.34709426 865.84527588 698.32736206 C857.78736788 702.92394223 849.75582214 707.5632416 841.75 712.25 C831.9942916 717.96117464 822.1932165 723.59027722 812.36962891 729.18359375 C806.31999228 732.62962661 800.28245628 736.0946054 794.265625 739.59765625 C793.05453904 740.30153829 791.84343902 741.00539611 790.63232422 741.70922852 C788.33431299 743.04497281 786.03974079 744.38611342 783.74658203 745.73022461 C782.72419434 746.32456299 781.70180664 746.91890137 780.6484375 747.53125 C779.29758057 748.32112305 779.29758057 748.32112305 777.91943359 749.12695312 C775.75 750.25 775.75 750.25 773.75 750.25 C773.75151888 750.83943374 773.75303776 751.42886748 773.75460267 752.03616285 C773.84412533 786.97492255 773.91275145 821.9136625 773.95426132 856.85251305 C773.95926411 861.04815993 773.9644414 865.24380659 773.96972656 869.43945312 C773.97130043 870.6923636 773.97130043 870.6923636 773.97290608 871.97058541 C773.99030879 885.49319037 774.02184574 899.01572727 774.05861118 912.53829187 C774.09602435 926.41487853 774.11823665 940.29142957 774.12635398 954.16806459 C774.13184098 962.72992416 774.14916783 971.29159136 774.18166587 979.85339171 C774.20281839 985.72545933 774.20919838 991.59742757 774.20400551 997.46953052 C774.20144479 1000.85697406 774.2075452 1004.24381083 774.2268219 1007.63124084 C774.24671544 1011.30712254 774.24194034 1014.98218039 774.23101807 1018.65808105 C774.24266943 1019.72424385 774.2543208 1020.79040664 774.26632524 1021.88887739 C774.20945814 1028.9669536 773.11452537 1034.58881575 768.21246552 1039.92310286 C763.31846982 1044.5655574 757.19760453 1047.56494846 751.3125 1050.75 C749.05887857 1051.99034099 746.80629895 1053.2325765 744.5546875 1054.4765625 C743.41612305 1055.1046582 742.27755859 1055.73275391 741.10449219 1056.37988281 C736.00594524 1059.22230418 730.96993639 1062.16755123 725.9375 1065.125 C717.28172995 1070.20212757 708.59276676 1075.21774853 699.875 1080.1875 C690.77902647 1085.37411698 681.69287486 1090.57681651 672.625 1095.8125 C671.55894531 1096.42802734 670.49289062 1097.04355469 669.39453125 1097.67773438 C666.17942477 1099.53470194 662.96464622 1101.39223579 659.75 1103.25 C645.80155632 1111.31089304 631.83996112 1119.34709426 617.84527588 1127.32736206 C609.78736788 1131.92394223 601.75582214 1136.5632416 593.75 1141.25 C583.97497235 1146.97248449 574.15213044 1152.6084344 564.3125 1158.21875 C556.44462595 1162.70555737 548.59174598 1167.21764758 540.75 1171.75 C531.72469154 1176.96642486 522.68072197 1182.14914975 513.625 1187.3125 C504.97304141 1192.24596734 496.34522495 1197.21819413 487.75 1202.25 C479.15477328 1207.2818069 470.5268787 1212.25389072 461.875 1217.1875 C452.77920013 1222.37442426 443.69287737 1227.57681506 434.625 1232.8125 C433.55894531 1233.42802734 432.49289062 1234.04355469 431.39453125 1234.67773438 C428.17942477 1236.53470194 424.96464622 1238.39223579 421.75 1240.25 C407.80155632 1248.31089304 393.83996112 1256.34709426 379.84527588 1264.32736206 C371.78736788 1268.92394223 363.75582214 1273.5632416 355.75 1278.25 C347.15477328 1283.2818069 338.5268787 1288.25389072 329.875 1293.1875 C320.77919778 1298.3744256 311.69313873 1303.57726466 302.625 1308.8125 C301.04875854 1309.72165161 301.04875854 1309.72165161 299.44067383 1310.64916992 C294.42114045 1313.54598636 289.40508017 1316.44854343 284.39727783 1319.36558533 C282.02476946 1320.74698479 279.65056064 1322.12544627 277.27618408 1323.50363159 C275.61131349 1324.47161891 273.94892774 1325.44387603 272.28662109 1326.41625977 C255.83616884 1335.961278 255.83616884 1335.961278 245.75 1334.25 C240.78172364 1332.45046683 236.30737495 1329.8885862 231.75 1327.25 C230.91871582 1326.77224121 230.08743164 1326.29448242 229.23095703 1325.80224609 C224.25816638 1322.9361023 219.30475939 1320.03813871 214.359375 1317.125 C207.56469688 1313.12860833 200.72426212 1309.21422118 193.875 1305.3125 C191.50497157 1303.9613524 189.13521473 1302.60972932 186.765625 1301.2578125 C186.18043091 1300.92395538 185.59523682 1300.59009827 184.99230957 1300.24612427 C175.63069344 1294.90202085 166.30117447 1289.50205445 156.96777344 1284.10888672 C151.56329359 1280.98675397 146.15655282 1277.86854119 140.75 1274.75 C134.27233115 1271.01363085 127.79510017 1267.27651653 121.3203125 1263.53515625 C109.51370516 1256.71497363 97.68973 1249.9267674 85.84527588 1243.17263794 C76.80528292 1238.01583392 67.80474679 1232.79456231 58.82324219 1227.53662109 C51.20094222 1223.08083656 43.54468689 1218.68602854 35.875 1214.3125 C23.54974804 1207.28396493 11.25277933 1200.20759566 -1.03222656 1193.10888672 C-6.43670641 1189.98675397 -11.84344718 1186.86854119 -17.25 1183.75 C-23.72766885 1180.01363085 -30.20489983 1176.27651653 -36.6796875 1172.53515625 C-48.48629484 1165.71497363 -60.31027 1158.9267674 -72.15472412 1152.17263794 C-81.19471708 1147.01583392 -90.19525321 1141.79456231 -99.17675781 1136.53662109 C-106.79905778 1132.08083656 -114.45531311 1127.68602854 -122.125 1123.3125 C-136.59950369 1115.05834364 -151.03221846 1106.73282628 -165.45898438 1098.39550781 C-168.68068275 1096.53397328 -171.90271079 1094.67301161 -175.125 1092.8125 C-176.72408203 1091.88920898 -176.72408203 1091.88920898 -178.35546875 1090.94726562 C-185.75734782 1086.6776343 -193.1740077 1082.43455951 -200.59686279 1078.2015686 C-210.90069397 1072.32531133 -221.18908558 1066.42420478 -231.4140625 1060.41137695 C-236.53573717 1057.40093024 -241.67843606 1054.44045609 -246.8671875 1051.546875 C-247.95612305 1050.93215332 -249.04505859 1050.31743164 -250.16699219 1049.68408203 C-252.24051591 1048.51476614 -254.32149138 1047.3585244 -256.41113281 1046.21826172 C-262.63158841 1042.68551241 -268.52311419 1038.65400887 -270.80618943 1031.50949545 C-271.35863026 1028.69694966 -271.37684246 1026.05817137 -271.37880117 1023.19035792 C-271.38207336 1021.937779 -271.38534555 1020.68520008 -271.38871691 1019.39466423 C-271.38730679 1017.99932943 -271.38580477 1016.60399473 -271.38422108 1015.20866013 C-271.38617366 1013.72440159 -271.38856238 1012.24014358 -271.39134905 1010.75588638 C-271.39776381 1006.65337746 -271.3979095 1002.55088809 -271.39707164 998.44837512 C-271.39724085 993.99411581 -271.40314369 989.53986357 -271.4083125 985.08560777 C-271.4176506 976.24047609 -271.42156258 967.39534942 -271.42383147 958.55021343 C-271.42679035 947.96003953 -271.43548584 937.36987229 -271.44424575 926.77970188 C-271.46510282 901.18187372 -271.47556147 875.58404441 -271.48437535 849.98620973 C-271.48857959 837.88206044 -271.49380184 825.77791164 -271.49905988 813.67376276 C-271.51695011 772.25763655 -271.53194761 730.8415102 -271.53938007 689.42538071 C-271.53985483 686.82467243 -271.54033072 684.22396414 -271.54080774 681.62325586 C-271.54104411 680.33351316 -271.54128049 679.04377046 -271.54152403 677.71494465 C-271.54272525 671.18024304 -271.54394069 664.64554144 -271.54516602 658.11083984 C-271.54540617 656.81399916 -271.54564632 655.51715848 -271.54589374 654.18101959 C-271.55379016 612.11558414 -271.57722904 570.05017685 -271.60972196 527.98475369 C-271.6439956 483.53305633 -271.66372887 439.08137546 -271.66702431 394.62966466 C-271.66744187 389.75291903 -271.66792144 384.87617341 -271.66844749 379.9994278 C-271.66857069 378.79859541 -271.66869388 377.59776303 -271.6688208 376.36054179 C-271.67115577 357.01063969 -271.68683214 337.66077023 -271.70728934 318.31087978 C-271.72751368 298.87337949 -271.73304072 279.43591852 -271.72351871 259.99840966 C-271.71829071 248.44229614 -271.7242424 236.88631327 -271.74605338 225.33021847 C-271.7595143 217.61717196 -271.75852633 209.90421585 -271.74565142 202.19116854 C-271.73872337 197.79238591 -271.73819186 193.39385392 -271.75521151 188.9950932 C-271.77056554 184.99433742 -271.76754771 180.99403477 -271.74980123 176.99329274 C-271.74664822 175.55406661 -271.75021708 174.11480625 -271.76129298 172.67561928 C-271.82273161 164.13697204 -271.79438938 157.16116295 -265.71252008 150.58843146 C-260.83770121 145.92679325 -254.69511957 142.93374419 -248.8125 139.75 C-246.56149041 138.51094695 -244.31151509 137.27001335 -242.0625 136.02734375 C-240.35513672 135.08544189 -240.35513672 135.08544189 -238.61328125 134.12451172 C-233.47099298 131.25847736 -228.38938642 128.29243916 -223.3125 125.3125 C-221.31908544 124.1444032 -219.32559521 122.97643554 -217.33203125 121.80859375 C-216.33510254 121.2244873 -215.33817383 120.64038086 -214.31103516 120.03857422 C-199.38137097 111.31511595 -184.36641086 102.73851107 -169.3458252 94.1729126 C-161.28773079 89.57624562 -153.25599909 84.936862 -145.25 80.25 C-136.65477328 75.2181931 -128.0268787 70.24610928 -119.375 65.3125 C-110.27920013 60.12557574 -101.19287737 54.92318494 -92.125 49.6875 C-91.05894531 49.07197266 -89.99289063 48.45644531 -88.89453125 47.82226562 C-85.67942477 45.96529806 -82.46464622 44.10776421 -79.25 42.25 C-74.95877226 39.77007259 -70.667185 37.29077029 -66.375 34.8125 C-65.314021 34.19987305 -64.25304199 33.58724609 -63.15991211 32.95605469 C-54.42202256 27.91559728 -45.66311153 22.91247867 -36.89877319 17.91821289 C-28.93292282 13.37802384 -20.99385225 8.79824289 -13.13256836 4.07885742 C-8.59517987 1.37338206 -5.27701634 0.08844161 0 0 Z M-4.7109375 48.75 C-6.10868408 49.57359009 -6.10868408 49.57359009 -7.53466797 50.41381836 C-9.06438232 51.32272827 -9.06438232 51.32272827 -10.625 52.25 C-12.82224472 53.54411031 -15.02018943 54.8370327 -17.21875 56.12890625 C-17.79213104 56.46620255 -18.36551208 56.80349884 -18.95626831 57.15101624 C-25.31384106 60.88573856 -31.71797333 64.53844427 -38.125 68.1875 C-40.49766042 69.53990093 -42.87002418 70.8928211 -45.2421875 72.24609375 C-45.82785492 72.58019257 -46.41352234 72.91429138 -47.01693726 73.2585144 C-53.10663729 76.73489515 -59.17900044 80.2410991 -65.25 83.75 C-74.27530846 88.96642486 -83.31927803 94.14914975 -92.375 99.3125 C-101.02695859 104.24596734 -109.65477505 109.21819413 -118.25 114.25 C-126.84523022 119.28180895 -135.47328125 124.25360658 -144.125 129.1875 C-164.9256607 141.05249437 -185.66562629 153.0125867 -206.25 165.25 C-203.85030318 167.90565787 -201.28555811 169.52998553 -198.18359375 171.296875 C-197.15443848 171.88654053 -196.1252832 172.47620605 -195.06494141 173.08374023 C-193.95038574 173.71610596 -192.83583008 174.34847168 -191.6875 175 C-190.51452396 175.6701518 -189.34183997 176.34081499 -188.16943359 177.01196289 C-185.73466706 178.40526752 -183.2986578 179.79636289 -180.86181641 181.18603516 C-175.35307004 184.33039751 -169.8657048 187.51178137 -164.375 190.6875 C-154.71615184 196.26545373 -145.03439805 201.80227962 -135.34527588 207.32736206 C-126.30528292 212.48416608 -117.30474679 217.70543769 -108.32324219 222.96337891 C-100.70094222 227.41916344 -93.04468689 231.81397146 -85.375 236.1875 C-73.06000615 243.21018534 -60.77328009 250.28067159 -48.49853516 257.37353516 C-45.17039446 259.29598288 -41.84122808 261.21664246 -38.51171875 263.13671875 C-37.40030518 263.77802734 -36.2888916 264.41933594 -35.14379883 265.08007812 C-32.94833729 266.3453848 -30.75158829 267.60846056 -28.5534668 268.86914062 C-23.52253372 271.758718 -18.51872829 274.67797463 -13.5703125 277.70703125 C-12.69818115 278.23393555 -11.8260498 278.76083984 -10.92749023 279.30371094 C-9.31615471 280.28008642 -7.71337046 281.27077699 -6.12133789 282.27832031 C-2.18950478 284.77831844 -2.18950478 284.77831844 2.2734375 284.79296875 C3.49933594 284.02919922 3.49933594 284.02919922 4.75 283.25 C5.94200485 282.61600642 7.13625106 281.9862188 8.33203125 281.359375 C9.74434166 280.57679167 11.15434341 279.79003315 12.5625 279 C13.34383301 278.56381348 14.12516602 278.12762695 14.93017578 277.67822266 C22.39377645 273.49004651 29.779818 269.1709478 37.16381836 264.84448242 C44.95555169 260.28318501 52.7814295 255.78385459 60.625 251.3125 C69.72097867 246.12589208 78.80712521 240.92318345 87.875 235.6875 C88.94105469 235.07197266 90.00710938 234.45644531 91.10546875 233.82226562 C94.32057523 231.96529806 97.53535378 230.10776421 100.75 228.25 C114.69844368 220.18910696 128.66003888 212.15290574 142.65472412 204.17263794 C151.67561403 199.02673113 160.6577589 193.81754258 169.61962891 188.56958008 C181.94045041 181.36573232 194.34728072 174.31158393 206.75 167.25 C206.75 166.26 206.75 165.27 206.75 164.25 C205.80253906 163.7238208 205.80253906 163.7238208 204.8359375 163.18701172 C191.08043839 155.53873619 177.41157746 147.76566941 163.83203125 139.80859375 C147.90571446 130.47727027 131.88030035 121.31668894 115.8458252 112.1729126 C106.80564477 107.01602355 97.80492376 101.79466591 88.82324219 96.53662109 C81.20094065 92.08083564 73.54461608 87.68615448 65.875 83.3125 C56.73915746 78.10201381 47.61059648 72.87958549 38.5 67.625 C37.4476416 67.01849609 36.3952832 66.41199219 35.31103516 65.78710938 C29.8136643 62.61382338 24.32893329 59.42019161 18.859375 56.19921875 C17.74981445 55.54711426 16.64025391 54.89500977 15.49707031 54.22314453 C13.37434399 52.97408767 11.25380163 51.72130984 9.13574219 50.46435547 C7.72276855 49.63315186 7.72276855 49.63315186 6.28125 48.78515625 C5.45173828 48.294104 4.62222656 47.80305176 3.76757812 47.29711914 C0.14582357 45.41743554 -1.39585757 46.78279534 -4.7109375 48.75 Z M746.2734375 191.2578125 C745.14035156 191.9075 744.00726562 192.5571875 742.83984375 193.2265625 C741.60149033 193.94258353 740.36321098 194.65873269 739.125 195.375 C737.84782933 196.10967597 736.57048354 196.84404759 735.29296875 197.578125 C726.44884975 202.66609954 717.63471988 207.80544188 708.82910156 212.9597168 C701.2050787 217.41711823 693.54668624 221.81283136 685.875 226.1875 C676.77920013 231.37442426 667.69287737 236.57681506 658.625 241.8125 C657.55894531 242.42802734 656.49289062 243.04355469 655.39453125 243.67773438 C652.17942477 245.53470194 648.96464622 247.39223579 645.75 249.25 C632.98353242 256.62782165 620.21126128 263.99440493 607.40258789 271.29870605 C586.73561559 283.08549392 566.21702793 295.11980973 545.75 307.25 C548.24384792 310.04563775 551.00215081 311.68253404 554.25390625 313.515625 C555.37345703 314.15048828 556.49300781 314.78535156 557.64648438 315.43945312 C558.86848838 316.12630422 560.09049362 316.81315312 561.3125 317.5 C563.22604535 318.58288202 565.13857937 319.66753656 567.05111694 320.75219727 C568.35973104 321.4941454 569.66867424 322.23551334 570.97793579 322.97631836 C577.25695641 326.53015329 583.50550449 330.13588303 589.75 333.75 C598.18320904 338.62493642 606.6317954 343.47207632 615.09375 348.296875 C625.32185335 354.12868831 635.51590016 360.0150223 645.67675781 365.96337891 C653.88915175 370.76411596 662.14261375 375.49140258 670.40625 380.203125 C679.93398074 385.63560306 689.4411461 391.10274671 698.9362793 396.59204102 C704.64010017 399.88689713 710.35104582 403.16859863 716.07421875 406.4296875 C716.68584366 406.77840912 717.29746857 407.12713074 717.92762756 407.48641968 C720.95391115 409.21147556 723.98167834 410.93383729 727.01196289 412.65185547 C731.95340214 415.46281396 736.87071842 418.28240393 741.671875 421.328125 C742.71661987 421.98675537 742.71661987 421.98675537 743.7824707 422.65869141 C745.52083162 423.76858684 747.24373536 424.9025976 748.96484375 426.0390625 C751.64267322 427.56626622 751.64267322 427.56626622 754.08911133 426.50732422 C756.82769595 425.21328708 759.46790867 423.82625316 762.109375 422.34375 C763.13345459 421.77019775 764.15753418 421.19664551 765.21264648 420.60571289 C766.29747314 419.99332764 767.3822998 419.38094238 768.5 418.75 C769.62672119 418.11634521 770.75344238 417.48269043 771.91430664 416.82983398 C778.70661565 412.99918325 785.4622246 409.11425832 792.16967773 405.13720703 C808.21800049 395.62440895 824.44656972 386.41539927 840.6522522 377.17401123 C848.71098741 372.57697775 856.74336382 367.93723496 864.75 363.25 C873.34522672 358.2181931 881.9731213 353.24610928 890.625 348.3125 C900.78305533 342.51981938 910.92801163 336.70550519 921.05053711 330.85083008 C926.09541333 327.9331293 931.14337898 325.02143291 936.20587158 322.13441467 C938.61979506 320.75745129 941.0317271 319.37702008 943.44354248 317.99636841 C945.14876049 317.02213289 946.85682054 316.05287719 948.56494141 315.08374023 C949.59409668 314.49407471 950.62325195 313.90440918 951.68359375 313.296875 C952.59165771 312.77963867 953.49972168 312.26240234 954.43530273 311.72949219 C956.52350796 310.39476761 958.09578204 309.08066332 959.75 307.25 C950.98134638 301.67912793 942.0040439 296.53229128 932.94775391 291.44580078 C925.94712892 287.50773904 918.99226961 283.49882537 912.0625 279.4375 C903.363668 274.34211376 894.63276863 269.30575188 885.875 264.3125 C871.40035384 256.05859497 856.96777984 247.73282529 842.54101562 239.39550781 C839.31931725 237.53397328 836.09728921 235.67301161 832.875 233.8125 C831.27591797 232.88920898 831.27591797 232.88920898 829.64453125 231.94726562 C821.06473313 226.99817439 812.46362919 222.08706471 803.859375 217.18069458 C795.50501024 212.41508064 787.17829066 207.60410004 778.875 202.75 C777.89047852 202.17483643 776.90595703 201.59967285 775.89160156 201.00708008 C768.28492856 196.56292877 768.28492856 196.56292877 765.39453125 194.87207031 C763.39057895 193.70189888 761.38350167 192.5373397 759.375 191.375 C758.31539062 190.75882813 757.25578125 190.14265625 756.1640625 189.5078125 C751.91865655 187.29580487 750.23830162 188.97581715 746.2734375 191.2578125 Z M-228.25 203.25 C-228.54131834 280.23626348 -228.81161681 357.22259338 -228.96983337 434.20925903 C-228.97218034 435.34835613 -228.97452731 436.48745324 -228.9769454 437.66106843 C-229.02782269 462.41563994 -229.07491609 487.17021729 -229.1181106 511.92480337 C-229.13931566 524.06412802 -229.16135703 536.20345109 -229.18383789 548.34277344 C-229.18606079 549.55079359 -229.1882837 550.75881373 -229.19057396 552.00344055 C-229.26304047 591.17172952 -229.39074979 630.33960206 -229.54705275 669.50763865 C-229.7073589 709.75184975 -229.81204121 749.99583032 -229.84655483 790.24035532 C-229.85145359 795.92223215 -229.85698942 801.60410819 -229.86291313 807.28598404 C-229.86405932 808.40427855 -229.86520551 809.52257306 -229.86638644 810.67475528 C-229.88649003 828.68956127 -229.96537429 846.70365528 -230.06614458 864.71817071 C-230.16615816 882.82104305 -230.20447381 900.9232083 -230.17952342 919.02634732 C-230.16657489 929.78758768 -230.20121654 940.54624386 -230.30355823 951.30701838 C-230.36724085 958.49277107 -230.36933562 965.67682908 -230.32114083 972.86269815 C-230.29542951 976.96017374 -230.29669344 981.05276107 -230.3730141 985.14971481 C-231.39345611 1000.58338224 -231.39345611 1000.58338224 -226.58674757 1014.49242559 C-222.63187262 1017.99890533 -218.31616381 1019.9247984 -213.32437425 1021.52847876 C-210.22843884 1022.60532551 -207.66675686 1024.21705993 -204.88671875 1025.9453125 C-202.90415622 1027.08942654 -200.92107536 1028.23264283 -198.9375 1029.375 C-197.84775879 1030.0033374 -196.75801758 1030.6316748 -195.63525391 1031.27905273 C-186.88647994 1036.31884996 -178.11842664 1041.32445634 -169.3477478 1046.32598877 C-160.30692659 1051.48324443 -151.30556088 1056.7049611 -142.32324219 1061.96337891 C-134.70094222 1066.41916344 -127.04468689 1070.81397146 -119.375 1075.1875 C-104.90049631 1083.44165636 -90.46778154 1091.76717372 -76.04101562 1100.10449219 C-72.81931725 1101.96602672 -69.59728921 1103.82698839 -66.375 1105.6875 C-65.30894531 1106.30302734 -64.24289063 1106.91855469 -63.14453125 1107.55273438 C-54.56004403 1112.50453042 -45.95419707 1117.41824868 -37.34527588 1122.32736206 C-28.30528292 1127.48416608 -19.30474679 1132.70543769 -10.32324219 1137.96337891 C-2.70094222 1142.41916344 4.95531311 1146.81397146 12.625 1151.1875 C27.09950369 1159.44165636 41.53221846 1167.76717372 55.95898438 1176.10449219 C59.18068275 1177.96602672 62.40271079 1179.82698839 65.625 1181.6875 C66.69105469 1182.30302734 67.75710938 1182.91855469 68.85546875 1183.55273438 C77.43995597 1188.50453042 86.04580293 1193.41824868 94.65472412 1198.32736206 C103.69471708 1203.48416608 112.69525321 1208.70543769 121.67675781 1213.96337891 C129.88915175 1218.76411596 138.14261375 1223.49140258 146.40625 1228.203125 C155.93398074 1233.63560306 165.4411461 1239.10274671 174.9362793 1244.59204102 C180.64009915 1247.88689654 186.35097134 1251.16873034 192.07421875 1254.4296875 C192.68597961 1254.77831848 193.29774048 1255.12694946 193.92803955 1255.48614502 C196.3636433 1256.87397657 198.79928959 1258.261732 201.23553467 1259.6484375 C209.32365904 1264.25412463 217.34354696 1268.94531313 225.2578125 1273.84375 C227.56337917 1275.41380913 227.56337917 1275.41380913 229.75 1275.25 C229.75 1196.38 229.75 1117.51 229.75 1036.25 C220.84 1031.3 211.93 1026.35 202.75 1021.25 C192.125 1015.1875 192.125 1015.1875 187.0546875 1012.27734375 C181.14313725 1008.89309839 175.19710258 1005.57125034 169.25 1002.25 C160.65935714 997.45119767 152.09572649 992.60899773 143.55810547 987.71655273 C137.17576932 984.06042221 130.77950791 980.429646 124.375 976.8125 C122.93459351 975.99894043 122.93459351 975.99894043 121.46508789 975.16894531 C117.62616353 973.00136969 113.78671686 970.83472204 109.94677734 968.66894531 C97.97050005 961.9137441 86.0171383 955.1200365 74.08486938 948.28744507 C65.83156978 943.56321626 57.55422419 938.88428431 49.25 934.25 C39.11696542 928.59437161 29.02246574 922.87358304 18.96069336 917.09228516 C13.49045858 913.95040623 8.01153592 910.82929113 2.48828125 907.78125 C1.5250293 907.24516113 0.56177734 906.70907227 -0.43066406 906.15673828 C-2.20446227 905.17119011 -3.98340949 904.19482342 -5.76855469 903.22998047 C-12.00438977 899.74675182 -16.37339283 895.98110036 -19.25 889.25 C-19.50197301 887.25971933 -19.50197301 887.25971933 -19.50480902 885.11758542 C-19.51073703 884.29584869 -19.51666503 883.47411197 -19.52277267 882.62747413 C-19.51912299 881.72831832 -19.51547331 880.82916251 -19.51171303 879.90275955 C-19.51570909 878.9408363 -19.51970515 877.97891304 -19.52382231 876.98784059 C-19.53485847 873.73966563 -19.53158658 870.49165928 -19.5284729 867.24346924 C-19.53347225 864.90125324 -19.53934697 862.55903897 -19.54602563 860.21682715 C-19.5602183 854.43899705 -19.56510559 848.66121045 -19.56615174 842.88336422 C-19.56792943 835.96476501 -19.58127649 829.04620072 -19.5950741 822.12761677 C-19.62021452 809.35874687 -19.63606654 796.58988111 -19.64665604 783.82099152 C-19.65717378 771.17508296 -19.67180078 758.5291902 -19.69193649 745.88329315 C-19.69318536 745.09750949 -19.69443423 744.31172582 -19.69572094 743.50213053 C-19.70208454 739.5116608 -19.70852176 735.5211912 -19.71498732 731.53072163 C-19.76067067 703.253725 -19.79710946 674.97672324 -19.828125 646.69970703 C-19.85828049 619.22606658 -19.89261507 591.75243655 -19.93261719 564.27880859 C-19.93384819 563.432205 -19.93507919 562.5856014 -19.9363475 561.71334315 C-19.94871417 553.21153376 -19.96116591 544.70972449 -19.97367998 536.20791531 C-19.99917148 518.88818367 -20.02409514 501.56845122 -20.04867554 484.24871826 C-20.04980645 483.4523552 -20.05093736 482.65599214 -20.05210253 481.83549687 C-20.12757946 428.64034332 -20.18977747 375.44517274 -20.25 322.25 C-21.31970787 321.65263283 -21.31970787 321.65263283 -22.411026 321.04319763 C-25.09695178 319.54273511 -27.78244656 318.04150471 -30.46766663 316.53977966 C-32.18535541 315.57944804 -33.9035245 314.61997567 -35.6217041 313.66052246 C-41.68027757 310.27149061 -47.71665098 306.85399163 -53.6875 303.3125 C-54.38375992 302.89969284 -55.08001984 302.48688568 -55.79737854 302.06156921 C-56.43143112 301.68547012 -57.0654837 301.30937103 -57.71875 300.921875 C-66.71707607 295.59650203 -75.80274218 290.41879299 -84.86376953 285.20117188 C-88.14880622 283.30830863 -91.43216436 281.41257293 -94.71484375 279.515625 C-106.50930572 272.70120675 -118.32191239 265.92012849 -130.15472412 259.17263794 C-138.21263303 254.57605725 -146.24412773 249.93667368 -154.25 245.25 C-165.71892803 238.53734322 -177.2514612 231.93866787 -188.79763794 225.36024475 C-193.21553249 222.84231959 -197.62808158 220.31516966 -202.0390625 217.78515625 C-203.95066156 216.68956742 -205.86234047 215.59411806 -207.77404785 214.49871826 C-208.99400594 213.79927187 -210.21365864 213.09929254 -211.4329834 212.39874268 C-213.12893996 211.42448354 -214.82616541 210.45243427 -216.5234375 209.48046875 C-217.96855713 208.65131958 -217.96855713 208.65131958 -219.44287109 207.80541992 C-222.33975859 206.20026509 -225.28414641 204.72296104 -228.25 203.25 Z M223.44140625 206.22265625 C222.31541016 206.8671875 221.18941406 207.51171875 220.02929688 208.17578125 C218.7903298 208.88796033 217.55139847 209.60020159 216.3125 210.3125 C215.03589437 211.04442274 213.75920054 211.77619164 212.48242188 212.5078125 C203.16045033 217.85260804 193.85312981 223.22285747 184.54956055 228.59960938 C176.58980743 233.1972138 168.61028879 237.75948446 160.625 242.3125 C151.97304141 247.24596734 143.34522495 252.21819413 134.75 257.25 C126.15477328 262.2818069 117.5268787 267.25389072 108.875 272.1875 C95.47370004 279.8296567 82.10746976 287.53145606 68.75 295.25 C64.31292537 297.81323729 59.87531335 300.37554194 55.4375 302.9375 C54.47376465 303.49445557 53.5100293 304.05141113 52.51708984 304.62524414 C42.28087244 310.5348042 32.01268801 316.38560685 21.75 322.25 C21.75 494.84 21.75 667.43 21.75 845.25 C30.34707388 840.95146306 38.65520706 836.70633184 46.875 831.8125 C48.96024386 830.5834578 51.04621204 829.35564388 53.1328125 828.12890625 C54.21079102 827.49484863 55.28876953 826.86079102 56.39941406 826.20751953 C62.15734624 822.84355129 67.95460781 819.54881296 73.75 816.25 C82.44459765 811.29724765 91.11498813 806.30620703 99.75 801.25 C108.3451729 796.2181021 116.97312222 791.24610876 125.625 786.3125 C134.72079987 781.12557574 143.80712263 775.92318494 152.875 770.6875 C153.94105469 770.07197266 155.00710938 769.45644531 156.10546875 768.82226562 C159.32057523 766.96529806 162.53535378 765.10776421 165.75 763.25 C170.04122774 760.77007259 174.33282087 758.29078046 178.625 755.8125 C180.20885498 754.89791016 180.20885498 754.89791016 181.82470703 753.96484375 C187.62822869 750.61696187 193.43852543 747.2813159 199.2578125 743.9609375 C200.1988533 743.4239045 200.1988533 743.4239045 201.15890503 742.87602234 C204.18417222 741.14999059 207.21030302 739.42549909 210.23779297 737.70336914 C211.88352295 736.76545532 211.88352295 736.76545532 213.5625 735.80859375 C214.51769531 735.26517334 215.47289062 734.72175293 216.45703125 734.16186523 C217.54371094 733.53094971 218.63039063 732.90003418 219.75 732.25 C220.97106699 731.86597482 220.97106699 731.86597482 222.216802 731.47419155 C225.55839305 730.14746006 227.37858348 728.98337264 229.75 726.25 C231.79194969 719.74476401 231.05251208 712.40085237 230.95254517 705.67337036 C230.95690482 703.51090861 230.96565863 701.34845198 230.97843683 699.18602359 C231.00083953 693.23588248 230.96074424 687.28753509 230.91065621 681.33762264 C230.86754272 674.9245802 230.88208022 668.51164204 230.88967896 662.09849548 C230.89492706 650.98479917 230.86385384 639.87169835 230.80730057 628.75815201 C230.74813774 617.10192209 230.70964278 605.44592594 230.69877243 593.78954697 C230.69808503 593.06490004 230.69739764 592.34025311 230.69668941 591.59364718 C230.6933061 587.91355766 230.69029225 584.23346793 230.68742065 580.55337797 C230.66641435 554.4846449 230.59903505 528.41621726 230.50439453 502.34765625 C230.41255655 477.02182642 230.34171746 451.69608016 230.29931641 426.37011719 C230.29800114 425.5895151 230.29668588 424.80891302 230.29533076 424.00465632 C230.28214561 416.1655565 230.26938746 408.32645603 230.25694217 400.487355 C230.23157978 384.51808531 230.20336726 368.54882107 230.1734314 352.57955933 C230.1720585 351.84531236 230.1706856 351.11106539 230.16927109 350.35456852 C230.07725845 301.3195825 229.91859782 252.28477607 229.75 203.25 C227.58741809 203.25 225.22484157 205.19984369 223.44140625 206.22265625 Z M523.75 345.25 C523.75 423.46 523.75 501.67 523.75 582.25 C536.125 589.18 536.125 589.18 548.75 596.25 C561.44924855 603.64109704 561.44924855 603.64109704 566.52734375 606.62109375 C573.19975895 610.52354575 579.90973965 614.35946605 586.625 618.1875 C596.75324683 623.96192529 606.86203448 629.76891119 616.95605469 635.60302734 C624.32221837 639.8573718 631.70412189 644.08349055 639.09375 648.296875 C649.32043001 654.12787676 659.51348383 660.01267821 669.67236328 665.96118164 C677.92011734 670.7833967 686.21165875 675.52679833 694.51382446 680.25439453 C704.23684261 685.79195153 713.91277121 691.40470529 723.55273438 697.0859375 C724.95555664 697.90964844 724.95555664 697.90964844 726.38671875 698.75 C727.61974731 699.47703125 727.61974731 699.47703125 728.87768555 700.21875 C730.53973219 701.3304082 730.53973219 701.3304082 731.75 701.25 C731.75 623.04 731.75 544.83 731.75 464.25 C722.51 458.97 713.27 453.69 703.75 448.25 C691.75 441.25 691.75 441.25 685.8671875 437.80859375 C679.22675631 433.93518897 672.55302955 430.12055022 665.875 426.3125 C651.40049631 418.05834364 636.96778154 409.73282628 622.54101562 401.39550781 C619.31931725 399.53397328 616.09728921 397.67301161 612.875 395.8125 C611.80894531 395.19697266 610.74289062 394.58144531 609.64453125 393.94726562 C601.0617421 388.99644907 592.45784385 384.0832538 583.85031128 379.17565918 C575.68479318 374.51850565 567.54897498 369.81319341 559.4375 365.0625 C551.26104729 360.27650122 543.05509669 355.54625426 534.8125 350.875 C533.81629639 350.30885986 532.82009277 349.74271973 531.79370117 349.15942383 C530.88338135 348.64532959 529.97306152 348.13123535 529.03515625 347.6015625 C528.22957275 347.14604004 527.42398926 346.69051758 526.59399414 346.22119141 C524.94988783 345.17233375 524.94988783 345.17233375 523.75 345.25 Z M976.02734375 347.8203125 C975.02662842 348.37960449 974.02591309 348.93889648 972.99487305 349.51513672 C971.35772339 350.43576904 971.35772339 350.43576904 969.6875 351.375 C968.55932861 352.00809082 967.43115723 352.64118164 966.26879883 353.29345703 C957.79048657 358.06126873 949.37644287 362.93514931 940.98608398 367.85595703 C933.27202702 372.37624027 925.51872767 376.82470656 917.75 381.25 C909.05581837 386.20349446 900.38502325 391.1937863 891.75 396.25 C883.1548271 401.2818979 874.52687778 406.25389124 865.875 411.1875 C853.54974804 418.21603507 841.25277933 425.29240434 828.96777344 432.39111328 C823.5632935 435.51324607 818.15649893 438.63136527 812.75 441.75 C808.46 444.225 804.17 446.7 799.75 449.25 C791.17 454.2 782.59 459.15 773.75 464.25 C773.75 542.46 773.75 620.67 773.75 701.25 C788.33770971 693.29306743 802.82907684 685.24399553 817.1652832 676.84350586 C824.95664011 672.28272646 832.78193819 667.7835646 840.625 663.3125 C849.72097867 658.12589208 858.80712521 652.92318345 867.875 647.6875 C869.47408203 646.76420898 869.47408203 646.76420898 871.10546875 645.82226562 C874.32057523 643.96529806 877.53535378 642.10776421 880.75 640.25 C894.69674476 632.19008877 908.65619611 624.15406513 922.64968872 616.17565918 C931.6744825 611.028423 940.66744823 605.82907193 949.61962891 600.55639648 C960.25433132 594.31497828 971.00956023 588.32068335 981.75 582.25 C981.75 504.04 981.75 425.83 981.75 345.25 C979.72210197 345.25 977.73262699 346.86656499 976.02734375 347.8203125 Z M493.0625 623.375 C491.87696533 624.04281494 491.87696533 624.04281494 490.66748047 624.72412109 C483.18123403 628.96050172 475.75840124 633.30695031 468.33666992 637.6550293 C460.54496411 642.2168165 452.71876334 646.71603548 444.875 651.1875 C435.77902133 656.37410792 426.69287479 661.57681655 417.625 666.8125 C416.02591797 667.73579102 416.02591797 667.73579102 414.39453125 668.67773438 C411.17942477 670.53470194 407.96464622 672.39223579 404.75 674.25 C390.80155632 682.31089304 376.83996112 690.34709426 362.84527588 698.32736206 C354.78736788 702.92394223 346.75582214 707.5632416 338.75 712.25 C328.97497235 717.97248449 319.15213044 723.6084344 309.3125 729.21875 C301.44462595 733.70555737 293.59174598 738.21764758 285.75 742.75 C276.72469154 747.96642486 267.68072197 753.14914975 258.625 758.3125 C249.97304141 763.24596734 241.34522495 768.21819413 232.75 773.25 C224.15477328 778.2818069 215.5268787 783.25389072 206.875 788.1875 C197.77920013 793.37442426 188.69287737 798.57681506 179.625 803.8125 C178.55894531 804.42802734 177.49289062 805.04355469 176.39453125 805.67773438 C173.17942477 807.53470194 169.96464622 809.39223579 166.75 811.25 C152.80155632 819.31089304 138.83996112 827.34709426 124.84527588 835.32736206 C115.81326029 840.47961544 106.81969897 845.69466451 97.84741211 850.95019531 C90.59910974 855.18916593 83.31592748 859.36380116 76.0194397 863.51898193 C63.74984606 870.50097108 63.74984606 870.50097108 51.5625 877.625 C50.43457031 878.29273438 49.30664062 878.96046875 48.14453125 879.6484375 C45.65494372 881.02775234 45.65494372 881.02775234 44.75 883.25 C45.70531616 883.78403442 45.70531616 883.78403442 46.67993164 884.32885742 C61.11688515 892.40131296 75.53516801 900.50551773 89.92919922 908.65429688 C92.72376327 910.2351581 95.51982159 911.81334143 98.31640625 913.390625 C109.37083698 919.62729807 120.4007189 925.90554194 131.41513062 932.21255493 C140.68421311 937.51822281 149.98932576 942.75672524 159.31591797 947.96069336 C167.15566523 952.34136427 174.95820168 956.78488677 182.75 961.25 C192.67717933 966.93824799 202.63536744 972.56791758 212.62402344 978.14770508 C219.92599524 982.22673355 227.21757813 986.32366388 234.5 990.4375 C235.9382312 991.24900513 235.9382312 991.24900513 237.40551758 992.0769043 C238.29779053 992.58133057 239.19006348 993.08575684 240.109375 993.60546875 C240.88764648 994.04528076 241.66591797 994.48509277 242.46777344 994.93823242 C244.75 996.25 244.75 996.25 247.22753906 997.9777832 C249.65726982 999.47064807 249.65726982 999.47064807 252.27905273 999.08618164 C254.81805187 998.22697089 256.96332479 997.20929461 259.28515625 995.87109375 C260.16196045 995.37053467 261.03876465 994.86997559 261.94213867 994.35424805 C262.88935791 993.80422119 263.83657715 993.25419434 264.8125 992.6875 C265.81837158 992.11104736 266.82424316 991.53459473 267.8605957 990.94067383 C270.0320551 989.69569049 272.20183752 988.44777861 274.37011719 987.19726562 C278.88869917 984.59395662 283.41909769 982.01156706 287.94897461 979.42797852 C291.49243494 977.40679875 295.03355367 975.38154024 298.57421875 973.35546875 C305.04975269 969.65017791 311.52708078 965.94803558 318.0050354 962.24697876 C320.92010647 960.5814642 323.83504653 958.91572037 326.75 957.25 C327.91666604 956.58333224 329.08333271 955.91666557 330.25 955.25 C330.8275 954.92 331.405 954.59 332 954.25 C477.24999996 871.25000003 477.24999996 871.25000003 478.99992371 870.25004578 C480.16684719 869.5832309 481.33376817 868.91641165 482.50068665 868.24958801 C485.41340351 866.58515299 488.32616355 864.92079361 491.23901367 863.2565918 C496.5362036 860.23004296 501.83304817 857.20289676 507.12832642 854.17300415 C519.41462304 847.14299545 531.71074902 840.13158689 544.03955078 833.17626953 C555.10776861 826.9273103 566.13734627 820.61076354 577.16943359 814.29833984 C582.44669519 811.27899321 587.72592816 808.26309681 593.0050354 805.24697876 C595.92010647 803.5814642 598.83504653 801.91572037 601.75 800.25 C602.91666604 799.58333224 604.08333271 798.91666557 605.25 798.25 C605.8275 797.92 606.405 797.59 607 797.25 C640.24999997 778.25000002 640.24999997 778.25000002 641.99981689 777.25010681 C643.16709642 776.58308849 644.33437343 775.91606578 645.50164795 775.2490387 C648.40891745 773.58771651 651.31622972 771.92646925 654.22363281 770.26538086 C659.58569583 767.20176842 664.94736644 764.13747631 670.30755615 761.07058716 C683.09701238 753.75302514 695.88813803 746.43986073 708.75 739.25 C708.75 738.59 708.75 737.93 708.75 737.25 C695.97683294 729.8648104 683.19558224 722.49494655 670.37805176 715.18701172 C660.15926499 709.36071647 649.97475459 703.47950681 639.82324219 697.53662109 C632.20094222 693.08083656 624.54468689 688.68602854 616.875 684.3125 C602.40049631 676.05834364 587.96778154 667.73282628 573.54101562 659.39550781 C559.9726621 651.55555643 546.39120357 643.73969825 532.77416992 635.98461914 C527.45394685 632.95163695 522.14370491 629.90538098 516.8671875 626.796875 C515.98345459 626.27770508 515.09972168 625.75853516 514.18920898 625.22363281 C512.57079266 624.27030394 510.95548885 623.31166267 509.34399414 622.34667969 C502.35981109 618.23673502 499.74214096 619.56117327 493.0625 623.375 Z M725.58984375 778.0390625 C724.49849121 778.64371338 723.40713867 779.24836426 722.28271484 779.87133789 C721.08418481 780.53900076 719.88578319 781.2068942 718.6875 781.875 C718.0810968 782.21224091 717.4746936 782.54948181 716.84991455 782.89694214 C707.38718134 788.16200677 698.00929417 793.55976658 688.67358398 799.04736328 C681.58224055 803.20691685 674.43385542 807.25259495 667.25 811.25 C659.0279741 815.825664 650.8641857 820.48570748 642.75 825.25 C633.60086711 830.62196793 624.37596869 835.84076525 615.10546875 841 C607.93646043 844.99964599 600.82913415 849.09358252 593.75 853.25 C584.525649 858.66450699 575.22985528 863.93630694 565.88793945 869.14501953 C556.75862258 874.23624609 547.67905085 879.41042475 538.61132812 884.61035156 C533.73311773 887.40574926 528.85065746 890.19370875 523.96865845 892.98248291 C520.97763672 894.691155 517.98687939 896.40028974 514.99609375 898.109375 C513.78499474 898.80143448 512.57389448 899.49349177 511.36279297 900.18554688 C510.46545441 900.69831177 510.46545441 900.69831177 509.54998779 901.22143555 C392.24999999 968.25000001 392.24999999 968.25000001 390.50004578 969.24996948 C389.33322151 969.91672911 388.16640226 970.5834975 386.99958801 971.25027466 C384.08537354 972.91559088 381.17107258 974.58075537 378.2565918 976.24560547 C372.97724336 979.26154606 367.69856056 982.27862341 362.42306519 985.30130005 C359.46996984 986.9932784 356.51637011 988.68437464 353.5625 990.375 C352.69099304 990.87383698 352.69099304 990.87383698 351.80187988 991.38275146 C343.56214898 996.0966987 335.29205867 1000.75372897 327 1005.375 C317.79607409 1010.50465082 308.66599999 1015.74835521 299.59277344 1021.10595703 C290.72789445 1026.32312493 281.75432166 1031.24759908 272.75 1036.25 C272.75 1115.12 272.75 1193.99 272.75 1275.25 C277.7095383 1273.59682057 281.61316557 1271.73535121 286 1269.0625 C287.51881236 1268.15374535 289.03839452 1267.24627648 290.55859375 1266.33984375 C291.3872998 1265.84468262 292.21600586 1265.34952148 293.06982422 1264.83935547 C298.04200401 1261.89083202 303.05350237 1259.01038116 308.0625 1256.125 C309.16158691 1255.49126465 310.26067383 1254.8575293 311.39306641 1254.20458984 C320.1324415 1249.17031819 328.89104388 1244.17014304 337.6522522 1239.17401123 C345.71098741 1234.57697775 353.74336382 1229.93723496 361.75 1225.25 C370.34522672 1220.2181931 378.9731213 1215.24610928 387.625 1210.3125 C396.72079987 1205.12557574 405.80712263 1199.92318494 414.875 1194.6875 C415.94105469 1194.07197266 417.00710938 1193.45644531 418.10546875 1192.82226562 C421.32057523 1190.96529806 424.53535378 1189.10776421 427.75 1187.25 C441.69844368 1179.18910696 455.66003888 1171.15290574 469.65472412 1163.17263794 C477.71263212 1158.57605777 485.74417786 1153.9367584 493.75 1149.25 C502.34522672 1144.2181931 510.9731213 1139.24610928 519.625 1134.3125 C528.72079987 1129.12557574 537.80712263 1123.92318494 546.875 1118.6875 C548.47408203 1117.76420898 548.47408203 1117.76420898 550.10546875 1116.82226562 C553.32057523 1114.96529806 556.53535378 1113.10776421 559.75 1111.25 C573.69844368 1103.18910696 587.66003888 1095.15290574 601.65472412 1087.17263794 C609.71263212 1082.57605777 617.74417786 1077.9367584 625.75 1073.25 C634.34522672 1068.2181931 642.9731213 1063.24610928 651.625 1058.3125 C663.93257188 1051.29404708 676.21205526 1044.22808214 688.47949219 1037.13964844 C693.02973676 1034.51058805 697.58078404 1031.88292004 702.13232422 1029.25610352 C704.28777937 1028.01211494 706.44306864 1026.76783885 708.59814453 1025.52319336 C716.30281448 1021.0761733 724.02593654 1016.66375055 731.75 1012.25 C731.75 934.04 731.75 855.83 731.75 775.25 C729.62250899 775.25 727.36977461 777.05265161 725.58984375 778.0390625 Z " fill="#FE2C1F" transform="translate(276.25,4.75)"/>
</svg>
