<?xml version="1.0" encoding="UTF-8"?>
<svg version="1.1" xmlns="http://www.w3.org/2000/svg" width="2300" height="2047">
<path d="M0 0 C1.90356748 -0.00526106 3.80713237 -0.01154635 5.71069336 -0.01878357 C9.67395406 -0.02909828 13.63685384 -0.02476158 17.60009766 -0.01000977 C21.60271856 0.00369423 25.60438381 -0.00310454 29.60693359 -0.03051758 C52.18687607 -0.18476411 73.59848847 0.09571606 95.625 5.56640625 C97.0739977 5.89724654 98.52364241 6.22527486 99.97412109 6.54956055 C103.44483141 7.35866505 106.87674872 8.24588299 110.3125 9.19140625 C112.14796387 9.69063599 112.14796387 9.69063599 114.02050781 10.19995117 C137.88496301 16.85300782 161.03409004 25.40579048 183.625 35.56640625 C184.80771484 36.0960498 185.99042969 36.62569336 187.20898438 37.17138672 C248.68466796 64.801833 305.57293101 102.16971605 358.625 143.56640625 C359.44097656 144.2011084 359.44097656 144.2011084 360.2734375 144.84863281 C372.73089489 154.54334764 385.02519506 164.44078544 397.03881836 174.68139648 C400.40388283 177.54723368 403.81147553 180.35182355 407.25 183.12890625 C412.01020053 187.00219897 416.55304784 191.07400617 421.0703125 195.2265625 C423.25197815 197.22475473 425.45511309 199.18789514 427.6875 201.12890625 C435.93486727 208.30562138 443.98686561 215.7015983 452.03222656 223.10302734 C453.67279327 224.61031687 455.31671639 226.11388598 456.9609375 227.6171875 C462.68827871 232.86523937 468.29183687 238.18413575 473.74609375 243.71875 C475.91073011 245.84738409 478.18707057 247.7576199 480.625 249.56640625 C489.05850602 245.8695269 495.69020479 237.61358334 502.0078125 231.12109375 C504.75533241 228.43918626 507.61523889 225.93660389 510.51513672 223.42236328 C513.96443997 220.38815785 517.29022627 217.22532277 520.625 214.06640625 C527.95228297 207.12552297 535.513305 200.49404951 543.1875 193.94140625 C547.60815311 190.16217887 552.01213937 186.36502142 556.39794922 182.54541016 C563.04364882 176.76071932 569.77208038 171.10531731 576.625 165.56640625 C577.88463213 164.53709137 579.14370823 163.50709579 580.40234375 162.4765625 C588.0672359 156.20839636 595.78868571 150.04217976 603.67382812 144.05224609 C605.99030271 142.28822403 608.29972865 140.51513996 610.609375 138.7421875 C619.87629885 131.63877722 629.16293453 124.59104232 638.72998047 117.89599609 C640.89990602 116.37352579 643.0611171 114.83903972 645.22265625 113.3046875 C674.96022609 92.25986344 706.00360274 73.2006156 738.07958984 55.94335938 C740.27686503 54.75473171 742.46280881 53.54885733 744.64453125 52.33203125 C780.31668678 32.64052258 819.3962489 17.83771657 858.8125 7.81640625 C860.39430054 7.41180176 860.39430054 7.41180176 862.00805664 6.99902344 C865.53580656 6.13198648 869.07813605 5.35148551 872.625 4.56640625 C873.29621887 4.39448761 873.96743774 4.22256897 874.65899658 4.04544067 C893.77771913 -0.82802799 913.51956217 -0.07949401 933.10107422 -0.01000977 C937.11736445 0.00375721 941.13270525 -0.00322849 945.14892578 -0.03051758 C987.56614047 -0.31787114 987.56614047 -0.31787114 1005.625 5.56640625 C1006.91245143 5.94112889 1008.2013044 6.31107938 1009.49169922 6.67553711 C1012.79821987 7.64446829 1016.05336384 8.69949837 1019.3125 9.81640625 C1020.44550537 10.20135254 1021.57851074 10.58629883 1022.74584961 10.98291016 C1044.21135617 18.45458977 1063.85706307 29.3876944 1081.625 43.56640625 C1082.54539062 44.29472656 1083.46578125 45.02304687 1084.4140625 45.7734375 C1093.11419035 52.77030088 1101.71805042 59.9645985 1108.90625 68.54296875 C1110.09772942 69.94566497 1111.33050961 71.31391048 1112.59375 72.65234375 C1124.06182734 84.82678817 1133.54278292 98.95649795 1141.625 113.56640625 C1142.31094238 114.80487305 1142.31094238 114.80487305 1143.01074219 116.06835938 C1181.20305805 185.70576589 1191.89536565 265.57050902 1191.8125 344.00390625 C1191.81156342 345.1620282 1191.81062683 346.32015015 1191.80966187 347.5133667 C1191.64556576 441.87267042 1176.87357602 537.2802298 1153.11004639 628.49691772 C1152.31106359 631.5967458 1151.625 634.35055452 1151.625 637.56640625 C1152.44025146 637.80125732 1153.25550293 638.0361084 1154.09545898 638.27807617 C1230.24862743 660.28397409 1304.1374912 687.2145369 1375.625 721.56640625 C1376.63836426 722.05238281 1377.65172852 722.53835938 1378.69580078 723.0390625 C1390.43470696 728.69840205 1401.79294882 734.93409373 1413.09765625 741.4140625 C1416.48277477 743.35399356 1419.87883157 745.26515262 1423.30859375 747.125 C1435.44843754 753.70945832 1447.05534435 761.03023047 1458.625 768.56640625 C1459.54901611 769.16582031 1459.54901611 769.16582031 1460.49169922 769.77734375 C1486.18252943 786.48070051 1510.83098492 805.1251484 1533.125 826.16796875 C1534.5746571 827.51947198 1536.0525679 828.84047223 1537.53125 830.16015625 C1574.28592548 862.96271609 1604.90086812 905.73128185 1620.625 952.56640625 C1620.90424316 953.38915039 1621.18348633 954.21189453 1621.47119141 955.05957031 C1627.54835551 973.25171665 1631.72384054 992.56230551 1631.828125 1011.796875 C1631.83864647 1013.09361397 1631.83864647 1013.09361397 1631.84938049 1014.41654968 C1631.86681605 1017.1957219 1631.87323384 1019.97468133 1631.875 1022.75390625 C1631.87601212 1024.17476532 1631.87601212 1024.17476532 1631.87704468 1025.62432861 C1631.86169981 1039.14932409 1631.59512211 1052.31575509 1628.625 1065.56640625 C1628.35961426 1066.79544678 1628.35961426 1066.79544678 1628.08886719 1068.04931641 C1623.97809265 1086.71819663 1617.770128 1104.29590042 1609.625 1121.56640625 C1609.16552979 1122.55906494 1609.16552979 1122.55906494 1608.69677734 1123.57177734 C1600.91959146 1140.29839918 1591.08525398 1156.12087632 1579.625 1170.56640625 C1578.7535729 1171.70187174 1577.88386643 1172.83865922 1577.015625 1173.9765625 C1571.74971541 1180.83686729 1566.2498773 1187.34912888 1560.328125 1193.65234375 C1558.27624709 1195.8643393 1556.29251183 1198.09858242 1554.32421875 1200.3828125 C1550.46040634 1204.81838102 1546.3569495 1208.98197403 1542.1875 1213.12890625 C1541.47529297 1213.84498047 1540.76308594 1214.56105469 1540.02929688 1215.29882812 C1535.39167956 1219.92802107 1530.59799997 1224.30189555 1525.625 1228.56640625 C1524.54210539 1229.51594337 1523.46002853 1230.46641418 1522.37890625 1231.41796875 C1514.09907208 1238.63932335 1505.51772346 1245.38187307 1496.73339844 1251.97705078 C1494.72162211 1253.49357045 1492.7225154 1255.0252412 1490.7265625 1256.5625 C1464.99965921 1276.28122615 1437.04504679 1293.06456254 1408.625 1308.56640625 C1407.51640625 1309.17484375 1406.4078125 1309.78328125 1405.265625 1310.41015625 C1357.00895392 1336.8521678 1306.51473805 1357.97481176 1254.85046387 1376.75646973 C1252.66787987 1377.55080053 1250.48667899 1378.34883352 1248.30566406 1379.14746094 C1221.2764273 1389.0231659 1193.82851862 1397.49347481 1166.27163696 1405.76641846 C1164.45258989 1406.31625415 1162.63611117 1406.87463665 1160.8218689 1407.44012451 C1159.9308548 1407.7156012 1159.0398407 1407.99107788 1158.12182617 1408.27490234 C1157.32822189 1408.52323822 1156.53461761 1408.7715741 1155.71696472 1409.0274353 C1153.625 1409.56640625 1153.625 1409.56640625 1150.625 1409.56640625 C1150.85050537 1410.4672998 1151.07601074 1411.36819336 1151.30834961 1412.29638672 C1171.03584708 1491.32964889 1186.43087756 1572.07129754 1190.625 1653.56640625 C1190.68695053 1654.74172913 1190.68695053 1654.74172913 1190.75015259 1655.9407959 C1191.54054369 1671.23577821 1191.82782807 1686.50209958 1191.8125 1701.81640625 C1191.81189575 1702.94537323 1191.8112915 1704.07434021 1191.81066895 1705.23751831 C1191.69313509 1786.70926513 1180.24842747 1872.22711864 1101.0625 1987.37890625 C1095.85540858 1992.47425751 1090.35517085 1997.07476754 1084.625 2001.56640625 C1083.65175781 2002.35660156 1082.67851563 2003.14679688 1081.67578125 2003.9609375 C1062.43576591 2019.29018435 1040.48019318 2030.48708573 1017.25 2038.44140625 C1016.26136963 2038.7863916 1015.27273926 2039.13137695 1014.25415039 2039.48681641 C1010.73961507 2040.63472578 1007.19945303 2041.6274885 1003.625 2042.56640625 C1002.8304541 2042.78242493 1002.0359082 2042.9984436 1001.21728516 2043.2210083 C982.42375264 2048.16045711 963.86349616 2048.34599954 944.57958984 2048.21826172 C940.25563881 2048.18986471 935.93323333 2048.20665433 931.6093359 2048.23547649 C867.11635435 2048.59934551 806.66785964 2026.15252885 749.625 1997.56640625 C748.54766602 1997.02902832 747.47033203 1996.49165039 746.36035156 1995.93798828 C729.6595303 1987.56696572 713.56921604 1978.29351488 697.625 1968.56640625 C696.05588867 1967.61048584 696.05588867 1967.61048584 694.45507812 1966.63525391 C679.87130125 1957.71706732 665.65088687 1948.3361998 651.625 1938.56640625 C650.48708008 1937.7760498 650.48708008 1937.7760498 649.32617188 1936.96972656 C633.65277786 1926.06558247 618.24333643 1914.79838081 603.30761719 1902.90185547 C600.95904707 1901.03785684 598.59573723 1899.19293102 596.23339844 1897.34643555 C586.81388898 1889.97703955 577.57796955 1882.40417446 568.46728516 1874.65673828 C564.9925864 1871.70660028 561.48042205 1868.80972396 557.9375 1865.94140625 C553.48596192 1862.3180613 549.20117545 1858.54676753 544.95703125 1854.68359375 C542.86676111 1852.78589456 540.75513885 1850.9190721 538.625 1849.06640625 C534.77389422 1845.71022169 530.97565186 1842.29766432 527.18359375 1838.875 C525.53247667 1837.38521345 523.87899856 1835.89803748 522.22265625 1834.4140625 C504.1379957 1818.20528246 504.1379957 1818.20528246 496.2421875 1810.15234375 C493.73966164 1807.69817588 491.07962096 1805.43250179 488.42578125 1803.14453125 C486.4007781 1801.3699081 484.48954143 1799.5086369 482.625 1797.56640625 C479.37292908 1798.98379114 477.31138933 1800.69167037 474.875 1803.25390625 C472.23490711 1805.96719949 469.56585848 1808.54494931 466.6875 1811.00390625 C463.69698284 1813.57305896 460.89383316 1816.25957881 458.125 1819.06640625 C454.85775625 1822.37247972 451.50484369 1825.47386086 447.9765625 1828.49609375 C445.48068709 1830.69345914 443.05694129 1832.95587541 440.63305664 1835.23193359 C435.02910576 1840.49395104 429.34050157 1845.51704576 423.3359375 1850.32421875 C420.33594135 1852.80548358 417.47368089 1855.41527162 414.625 1858.06640625 C410.06916307 1862.30047443 405.37227905 1866.29573043 400.52734375 1870.1953125 C397.23536472 1872.88472202 394.02505506 1875.65822579 390.8125 1878.44140625 C384.53814997 1883.85395133 378.09573664 1889.00924529 371.54248047 1894.07861328 C369.49210005 1895.6695247 367.45063094 1897.27140626 365.41015625 1898.875 C355.38074378 1906.74244309 345.21062068 1914.39421908 334.90722656 1921.89892578 C332.79278496 1923.44381626 330.68818582 1925.0010812 328.5859375 1926.5625 C306.7725188 1942.66206395 283.92389881 1957.71148904 260.625 1971.56640625 C259.65675293 1972.14374512 258.68850586 1972.72108398 257.69091797 1973.31591797 C240.67425361 1983.41445488 223.30792638 1992.70334443 205.625 2001.56640625 C204.60809082 2002.076875 203.59118164 2002.58734375 202.54345703 2003.11328125 C148.32621658 2030.14469481 89.91858376 2048.62394445 29.05810547 2048.21826172 C24.7295547 2048.18968436 20.40253513 2048.20678737 16.07403564 2048.23546124 C-3.26934624 2048.3442221 -21.57213274 2047.6669146 -40.375 2042.56640625 C-41.07427612 2042.38384277 -41.77355225 2042.2012793 -42.49401855 2042.01318359 C-46.34587702 2040.99490716 -50.1126877 2039.81220067 -53.875 2038.50390625 C-55.5288269 2037.93917603 -55.5288269 2037.93917603 -57.21606445 2037.36303711 C-95.59987301 2023.80857534 -130.23229658 1999.68588078 -155.375 1967.56640625 C-156.16519531 1966.5815625 -156.95539063 1965.59671875 -157.76953125 1964.58203125 C-214.72363879 1892.95193961 -228.32407945 1795.23440163 -226.375 1637.56640625 C-226.26541962 1636.19174194 -226.26541962 1636.19174194 -226.15362549 1634.78930664 C-220.0049436 1558.8475798 -206.73118275 1483.2561656 -187.375 1409.56640625 C-188.31827148 1409.34146484 -189.26154297 1409.11652344 -190.23339844 1408.88476562 C-200.82102157 1406.32122093 -211.22418261 1403.29873884 -221.625 1400.06640625 C-222.88106552 1399.6777388 -222.88106552 1399.6777388 -224.1625061 1399.28121948 C-299.23275458 1376.03157782 -374.10351006 1348.45676184 -442.83691406 1309.97802734 C-445.33666646 1308.58772642 -447.84878294 1307.22336567 -450.3671875 1305.8671875 C-491.34202842 1283.75006292 -531.51569038 1257.08977084 -565.56640625 1225.1640625 C-567.73988406 1223.15382225 -569.93812564 1221.20909848 -572.1796875 1219.27734375 C-576.61869904 1215.40911463 -580.78668618 1211.30225843 -584.9375 1207.12890625 C-585.65357422 1206.41669922 -586.36964844 1205.70449219 -587.10742188 1204.97070312 C-591.73630969 1200.33339149 -596.11555454 1195.5435077 -600.375 1190.56640625 C-601.27574324 1189.53359383 -602.17676321 1188.50102265 -603.078125 1187.46875 C-617.86954494 1170.24990378 -630.67327839 1151.58167768 -641.375 1131.56640625 C-641.88111816 1130.63006348 -641.88111816 1130.63006348 -642.39746094 1129.67480469 C-657.70785234 1101.13026032 -668.30193833 1067.97696559 -668.61328125 1035.37890625 C-668.62302979 1034.52672012 -668.63277832 1033.674534 -668.64282227 1032.79652405 C-668.81352408 1014.00982889 -668.61268283 995.96567995 -664.375 977.56640625 C-664.10212158 976.32407227 -664.10212158 976.32407227 -663.82373047 975.05664062 C-654.77326453 934.58431572 -634.1059929 897.02280864 -607.375 865.56640625 C-606.55902344 864.57769531 -605.74304688 863.58898437 -604.90234375 862.5703125 C-584.70152611 838.16681774 -561.47990799 816.8178031 -536.375 797.56640625 C-535.48337158 796.87925537 -535.48337158 796.87925537 -534.57373047 796.17822266 C-517.51554981 783.06671164 -499.89235867 770.71130694 -481.37158203 759.75292969 C-479.50789992 758.64538566 -477.65629685 757.52066577 -475.80859375 756.38671875 C-400.93291044 710.56397739 -318.0496708 677.26429781 -188.375 637.56640625 C-189.61045774 630.45487084 -191.03376786 623.42197443 -192.6953125 616.3984375 C-193.14904135 614.45516208 -193.60239481 612.51179898 -194.05541992 610.56835938 C-194.4088295 609.05640991 -194.4088295 609.05640991 -194.76937866 607.51391602 C-209.94864019 542.38149973 -221.53665751 476.32991361 -226.375 409.56640625 C-226.42613953 408.87826843 -226.47727905 408.19013062 -226.52996826 407.48114014 C-232.94384675 320.64575071 -229.49267566 226.86020789 -164.375 91.56640625 C-163.7238623 90.66293457 -163.7238623 90.66293457 -163.05957031 89.74121094 C-157.77189502 82.47827801 -151.98191445 75.76158148 -145.83984375 69.21875 C-143.87951132 67.10929561 -142.01445317 64.97694683 -140.1875 62.75390625 C-136.94015807 58.92864754 -133.20037302 55.7974238 -129.375 52.56640625 C-128.00408203 51.34630859 -128.00408203 51.34630859 -126.60546875 50.1015625 C-104.53606423 30.61202227 -78.25102711 16.90887851 -50.375 7.81640625 C-49.55870117 7.54675049 -48.74240234 7.27709473 -47.90136719 6.99926758 C-31.9821536 2.0072065 -16.63705889 -0.05736343 0 0 Z M-73.68164062 139.61865234 C-120.50620798 193.47770632 -127.63239051 275.34318996 -127.5625 343.50390625 C-127.56189575 344.60000214 -127.5612915 345.69609802 -127.56066895 346.82540894 C-127.53194593 366.14146172 -126.94828913 385.3158428 -125.375 404.56640625 C-125.3141925 405.3268927 -125.25338501 406.08737915 -125.19073486 406.87091064 C-119.61312101 476.29135645 -106.92122255 545.20571201 -89.375 612.56640625 C-83.05767131 611.87810098 -76.93277414 610.7138491 -70.72265625 609.37890625 C-68.58828468 608.92716628 -66.45384134 608.47576537 -64.31933594 608.0246582 C-62.63946594 607.66822739 -62.63946594 607.66822739 -60.92565918 607.30459595 C-33.82693472 601.56976615 -6.66141524 596.32574923 20.625 591.56640625 C22.07444 591.31307526 22.07444 591.31307526 23.55316162 591.05462646 C76.93789061 581.75174781 130.67302501 574.88222802 184.52734375 568.9765625 C186.24076462 568.78515182 186.24076462 568.78515182 187.98880005 568.58987427 C193.12117845 568.02305879 198.24484527 567.50094314 203.39526367 567.12866211 C204.2725563 567.05848373 205.14984894 566.98830536 206.0537262 566.91600037 C207.64157905 566.79247503 209.23116122 566.68857568 210.82188416 566.61024475 C214.65378797 566.29895906 217.01119912 565.60769779 219.70776367 562.93530273 C221.42928528 560.79219129 222.99147988 558.8319906 224.32421875 556.4453125 C226.76966757 552.26211131 229.55064825 548.3749979 232.375 544.44140625 C233.38782897 542.99817433 234.39952471 541.55414654 235.41015625 540.109375 C241.00694802 532.15932753 246.82463279 524.36842545 252.625 516.56640625 C253.39199219 515.53386719 254.15898438 514.50132812 254.94921875 513.4375 C268.35535871 495.48604021 281.98124333 477.68514009 295.8515625 460.08984375 C297.66589639 457.78796317 299.47308591 455.48079996 301.2734375 453.16796875 C306.87605052 445.9814033 312.60612449 438.91417483 318.421875 431.89892578 C322.17096035 427.3660344 325.83315294 422.77742561 329.4375 418.12890625 C333.25161352 413.21825233 337.24810378 408.55796143 341.45703125 403.9765625 C344.4963308 400.59773759 347.33066969 397.06521592 350.19140625 393.53515625 C354.38221342 388.42277511 358.70530295 383.42451249 363.02490234 378.42089844 C364.65065134 376.53667668 366.27268058 374.64929637 367.89453125 372.76171875 C373.88938249 365.7991247 379.97533735 358.94305848 386.2109375 352.1953125 C388.7723896 349.40589945 391.26262215 346.56450943 393.73828125 343.69921875 C395.25625508 341.98324834 396.79452565 340.29752429 398.35546875 338.62109375 C398.84273437 338.09644531 399.33 337.57179688 399.83203125 337.03125 C400.79064261 336.00181774 401.75267408 334.97555535 402.71875 333.953125 C405.76949684 330.67379195 408.23816181 327.33392133 410.625 323.56640625 C407.79597124 320.70794618 404.96099221 317.85545641 402.125 315.00390625 C400.93777344 313.80411133 400.93777344 313.80411133 399.7265625 312.58007812 C395.47980004 308.3159109 391.16758981 304.21510864 386.60351562 300.29321289 C382.26944755 296.51052983 378.14868391 292.49056472 373.98046875 288.52734375 C369.29281432 284.08821213 364.51810648 279.77784191 359.625 275.56640625 C359.06474121 275.08397461 358.50448242 274.60154297 357.92724609 274.10449219 C356.30785648 272.71421079 354.68569474 271.3272425 353.0625 269.94140625 C349.31791792 266.74273946 345.58179789 263.53597583 341.87890625 260.2890625 C335.39433179 254.60861919 328.84887015 249.07506392 322.03076172 243.79833984 C317.35463745 240.17150497 312.79817573 236.414418 308.25 232.62890625 C300.91206884 226.54558315 293.39686544 220.75911029 285.72021484 215.11132812 C283.54279507 213.50579185 281.37441987 211.88857858 279.20703125 210.26953125 C241.0989236 181.87891 201.12418671 156.79298442 158.625 135.56640625 C157.74730957 135.12361328 156.86961914 134.68082031 155.96533203 134.22460938 C85.29458148 98.72381304 -13.01878219 73.48928209 -73.68164062 139.61865234 Z M761.35791016 158.92871094 C758.79464942 160.4647439 756.21902718 161.97674175 753.63671875 163.48046875 C733.29449468 175.39241559 713.70366097 188.73066743 694.625 202.56640625 C693.85752441 203.12279785 693.09004883 203.67918945 692.29931641 204.25244141 C677.60878097 214.93245183 663.37977932 226.09200027 649.30859375 237.5703125 C646.36896592 239.96636678 643.40969991 242.33580535 640.4375 244.69140625 C634.98126711 249.04546188 629.66412487 253.56088966 624.35449219 258.09130859 C622.59511122 259.59189863 620.83276701 261.08895933 619.0703125 262.5859375 C612.6321915 268.06651769 606.29403595 273.62848956 600.0625 279.34375 C597.98227275 281.24062389 595.87943102 283.10033568 593.75 284.94140625 C588.50513618 289.50262184 583.43474271 294.2550793 578.33935547 298.98144531 C576.66003453 300.53401602 574.97392359 302.07880873 573.28515625 303.62109375 C566.20941301 310.09306535 559.34537129 316.72482585 552.625 323.56640625 C554.97058441 327.238208 557.2773859 330.44219409 560.4375 333.44140625 C563.70414572 336.62382906 566.73755644 339.91182001 569.7109375 343.3671875 C571.97654569 345.97032507 574.29803552 348.51799349 576.625 351.06640625 C584.2756502 359.46374153 591.65533917 368.08477494 599.04003906 376.71533203 C600.58511515 378.51982477 602.13202979 380.32272121 603.6796875 382.125 C612.59053327 392.50319198 621.48727069 402.88920135 630.12109375 413.5 C632.04276017 415.85336684 633.97259522 418.19883392 635.91015625 420.5390625 C641.86646222 427.73667576 647.77355137 434.96009908 653.51342773 442.33178711 C656.96516194 446.75587629 660.50487933 451.10224276 664.0625 455.44140625 C668.87556965 461.32632965 673.50434108 467.32092882 678.03491211 473.42529297 C681.82759326 478.52894013 685.70802096 483.55766096 689.625 488.56640625 C696.06919463 496.81888042 702.38824211 505.15626235 708.625 513.56640625 C709.17655762 514.31003418 709.72811523 515.05366211 710.29638672 515.81982422 C721.22914904 530.57674036 732.01777243 545.43766454 742.64355469 560.41723633 C744.49288988 563.10742216 744.49288988 563.10742216 746.625 565.56640625 C748.85962467 565.89218641 751.10337333 566.15544991 753.34887695 566.39501953 C754.05664811 566.47186226 754.76441927 566.54870499 755.49363804 566.62787628 C757.0452025 566.79580939 758.59698672 566.961721 760.14895248 567.12590408 C762.64289177 567.38985261 765.13621045 567.65907572 767.62942505 567.92977905 C771.20043523 568.31723455 774.77163753 568.70284355 778.34298706 569.0871582 C812.17776608 572.73457988 845.95165815 576.62025341 879.625 581.56640625 C880.74708862 581.73078186 881.86917725 581.89515747 883.02526855 582.06451416 C932.96040786 589.40026151 982.55480904 598.18140615 1031.89282227 608.80786133 C1033.64457512 609.1842701 1033.64457512 609.1842701 1035.43171692 609.56828308 C1037.62133829 610.03981731 1039.81033124 610.5142824 1041.99858093 610.99214172 C1043.44706169 611.30468147 1043.44706169 611.30468147 1044.92480469 611.62353516 C1045.76485046 611.80655182 1046.60489624 611.98956848 1047.47039795 612.1781311 C1049.75218927 612.65508158 1049.75218927 612.65508158 1052.625 612.56640625 C1070.51276715 544.46696364 1082.97748372 474.76597002 1088.625 404.56640625 C1088.68558594 403.8147821 1088.74617188 403.06315796 1088.80859375 402.28875732 C1091.76520226 364.96670791 1092.38287423 326.84017666 1088.625 289.56640625 C1088.50141113 288.3129541 1088.37782227 287.05950195 1088.25048828 285.76806641 C1082.69630974 231.5525515 1069.80639813 173.77571143 1030.625 133.56640625 C1029.9959375 132.86386719 1029.366875 132.16132813 1028.71875 131.4375 C1009.37409519 110.43836813 978.44933049 99.92046064 950.53662109 98.39794922 C883.42381113 96.00642371 817.78825393 124.98346558 761.35791016 158.92871094 Z M479.14453125 398.81640625 C475.49658675 402.55617544 471.98607781 406.37580816 468.57421875 410.33203125 C466.29479306 412.94492001 463.96287647 415.50570646 461.625 418.06640625 C453.9743498 426.46374153 446.59466083 435.08477494 439.20996094 443.71533203 C437.66488485 445.51982477 436.11797021 447.32272121 434.5703125 449.125 C424.79818556 460.50630005 415.09208468 471.9290693 405.625 483.56640625 C404.20875089 485.29591492 402.79207527 487.02507442 401.375 488.75390625 C399.79143505 490.69121695 398.20812697 492.62873763 396.625 494.56640625 C395.8817749 495.47398682 395.8817749 495.47398682 395.12353516 496.39990234 C388.65839147 504.29780847 382.27710687 512.24082928 376.0859375 520.35546875 C373.46613474 523.78591153 370.79757091 527.17700914 368.125 530.56640625 C364.46169275 535.21960382 360.8098419 539.88122151 357.1875 544.56640625 C356.40503906 545.57703125 355.62257813 546.58765625 354.81640625 547.62890625 C352.64177277 550.54392296 350.63102624 553.53383927 348.625 556.56640625 C349.61998505 556.52965475 349.61998505 556.52965475 350.6350708 556.4921608 C392.16808296 554.97118722 433.64367469 554.23925167 475.20348072 554.30926943 C480.19785573 554.31680762 485.19215132 554.31407832 490.18652344 554.30566406 C531.70300755 554.23739538 573.13624482 555.03394709 614.625 556.56640625 C614.01304024 555.75086777 614.01304024 555.75086777 613.38871765 554.91885376 C612.85140518 554.20264862 612.31409271 553.48644348 611.76049805 552.74853516 C611.22877487 552.03984283 610.6970517 551.33115051 610.1492157 550.60098267 C608.91525708 548.95385155 607.68549548 547.30357675 606.45703125 545.65234375 C601.09461622 538.45405355 595.58904552 531.38141411 590.0234375 524.33984375 C588.65666333 522.60656031 587.29597099 520.86870243 585.9375 519.12890625 C579.42588339 510.79493809 572.79247094 502.56559481 566.1015625 494.375 C564.79452459 492.77405145 563.49076644 491.17042649 562.1875 489.56640625 C557.75615296 484.12217989 553.25236461 478.74531056 548.70605469 473.3972168 C545.84607147 470.0275188 543.03225959 466.62591718 540.25 463.19140625 C535.6064724 457.48839285 530.78759591 451.94654645 525.95703125 446.40234375 C523.28266167 443.33105205 520.63497371 440.23826376 517.99609375 437.13647461 C512.81402506 431.04872779 507.50583724 425.10361361 502.078125 419.234375 C500.03910571 417.01677918 498.03720898 414.77851263 496.0625 412.50390625 C493.16346541 409.17564567 490.25195194 405.85903389 487.3125 402.56640625 C486.47074219 401.61765625 485.62898438 400.66890625 484.76171875 399.69140625 C482.08025363 396.99745387 482.08025363 396.99745387 479.14453125 398.81640625 Z M354.625 656.56640625 C353.36171183 656.62199896 353.36171183 656.62199896 352.07290268 656.67871475 C344.12369479 657.03086178 336.17773749 657.42662264 328.23413086 657.88916016 C323.97999738 658.13665602 319.72494204 658.3668353 315.46995544 658.59913635 C313.35866624 658.72125569 311.24795946 658.85400138 309.13807678 658.99839783 C303.55741636 659.37952559 298.03199508 659.58974315 292.43725586 659.58032227 C279.76971453 659.24164787 279.76971453 659.24164787 268.72436523 664.38427734 C265.4813728 668.04093342 263.29581992 672.18695147 261.0625 676.50390625 C260.19035121 678.00903946 259.30823494 679.5084367 258.41674805 681.00219727 C256.61978141 684.03277666 254.87046442 687.08369791 253.15332031 690.16015625 C249.79584925 696.10643887 245.95778187 701.70339062 242.08853149 707.32391357 C235.85860574 716.41682692 229.9804621 725.71028577 224.3046875 735.15625 C221.29750785 740.14528061 218.14618804 745.03931884 215 749.94140625 C206.63579737 763.004717 198.62977926 776.28119054 190.625 789.56640625 C189.75135448 791.01305248 188.87766588 792.45967269 188.00390625 793.90625 C185.86562491 797.4525059 183.7420197 801.00742326 181.625 804.56640625 C181.16770508 805.33452637 180.71041016 806.10264648 180.23925781 806.89404297 C166.89048637 829.33876552 153.87412718 851.96686386 141.17382812 874.78466797 C139.78016583 877.28772411 138.38302345 879.78879041 136.984375 882.2890625 C116.04285213 919.77434671 96.19272994 957.85716186 76.83233643 996.17895508 C75.73082979 998.35713279 74.62560456 1000.53337176 73.51904297 1002.70898438 C71.86618713 1005.96343749 70.24103558 1009.23098874 68.625 1012.50390625 C67.95803101 1013.81427856 67.95803101 1013.81427856 67.27758789 1015.15112305 C65.06633682 1019.71741974 63.93123518 1022.55000699 65.625 1027.56640625 C66.93218395 1030.7592406 68.4143628 1033.84647647 69.9375 1036.94140625 C70.40534912 1037.90530273 70.87319824 1038.86919922 71.35522461 1039.86230469 C73.09875337 1043.43685112 74.85951297 1047.00267537 76.625 1050.56640625 C76.99633057 1051.31660034 77.36766113 1052.06679443 77.75024414 1052.83972168 C80.71997963 1058.83661848 83.70091328 1064.82788586 86.6875 1070.81640625 C87.10375641 1071.65177917 87.52001282 1072.4871521 87.94888306 1073.34783936 C93.63985278 1084.757191 99.47461982 1096.08143475 105.44815063 1107.34533691 C106.56722876 1109.45737451 107.68236749 1111.57142846 108.7956543 1113.68652344 C116.35728412 1128.05196064 123.97098763 1142.37252324 132.02490234 1156.4699707 C135.623245 1162.77016558 139.11526954 1169.11993559 142.5625 1175.50390625 C147.83794234 1185.24572739 153.37957532 1194.81654579 158.9921875 1204.3671875 C162.08909634 1209.63829031 165.14302996 1214.93298867 168.18603516 1220.23535156 C184.49861237 1248.64971322 201.5779259 1276.62044859 219.16503906 1304.26318359 C220.61636255 1306.55277988 222.05541013 1308.84969073 223.4921875 1311.1484375 C232.87505631 1326.09835519 242.69402303 1340.7557734 252.5 1355.42993164 C253.0832605 1356.30485764 253.666521 1357.17978363 254.26745605 1358.08122253 C255.42700927 1359.80995558 256.59597525 1361.53241429 257.77453613 1363.24824524 C260.41676781 1367.11509751 262.87084621 1370.90966852 264.93554688 1375.11767578 C268.45378938 1382.15622145 268.45378938 1382.15622145 274.80966187 1386.35861206 C280.37099291 1387.51690024 285.94810344 1387.5610917 291.61004639 1387.54736328 C295.53557776 1387.57215762 299.42306708 1387.84897652 303.33691406 1388.13449097 C308.45019015 1388.50419362 313.5691063 1388.77795156 318.6875 1389.06640625 C319.79494568 1389.12955017 320.90239136 1389.19269409 322.043396 1389.25775146 C416.2468219 1394.59386775 510.64468556 1395.0273999 663.625 1387.94140625 C664.62195892 1387.87914856 665.61891785 1387.81689087 666.64608765 1387.75274658 C669.4102058 1387.57790927 672.17391799 1387.39794396 674.9375 1387.21484375 C675.72570633 1387.16390564 676.51391266 1387.11296753 677.32600403 1387.06048584 C678.76815469 1386.96145624 680.20941694 1386.84802175 681.64906311 1386.71754456 C683.51440037 1386.57486595 685.38873734 1386.56889423 687.25952148 1386.5715332 C692.50253489 1385.00566551 694.29934329 1381.30749896 697.16015625 1376.8359375 C697.75624695 1375.94225967 698.35233765 1375.04858185 698.9664917 1374.12782288 C700.89493941 1371.22505794 702.79135254 1368.3028505 704.6875 1365.37890625 C706.00502201 1363.38118051 707.32427905 1361.38459796 708.64526367 1359.38916016 C712.33495938 1353.80072951 715.98622778 1348.18808756 719.625 1342.56640625 C720.44463578 1341.30353151 721.2642935 1340.04067101 722.08398438 1338.77783203 C725.44588059 1333.58105172 728.75406003 1328.35334975 732.03076172 1323.10253906 C734.47551388 1319.21339886 736.96844154 1315.35553629 739.45556641 1311.4934082 C747.66271457 1298.73969205 755.6719717 1285.87240938 763.57324219 1272.92724609 C764.96007065 1270.65558015 766.34832722 1268.38487089 767.73925781 1266.11572266 C776.70836461 1251.48129046 785.48182968 1236.7558329 794.01171875 1221.859375 C796.93824541 1216.74915479 799.90527344 1211.66413264 802.88818359 1206.58666992 C809.10785748 1195.99468944 815.15021154 1185.31542891 821.08764648 1174.56274414 C824.54387622 1168.30385076 828.03776933 1162.07030811 831.58837891 1155.86450195 C838.76894754 1143.30015125 845.4418981 1130.50065385 852.04833984 1117.62695312 C854.21283747 1113.42532069 856.41519793 1109.2443347 858.625 1105.06640625 C865.02208763 1092.93246586 871.37156455 1080.7750716 877.625 1068.56640625 C878.03627136 1067.76402527 878.44754272 1066.96164429 878.87127686 1066.13494873 C881.61830965 1060.7708593 884.35054806 1055.39952338 887.06842041 1050.02059937 C887.97605446 1048.22784914 888.88711107 1046.4368273 889.80169678 1044.64761353 C891.09244511 1042.12016123 892.36994952 1039.58641654 893.64453125 1037.05078125 C894.03241318 1036.29764145 894.4202951 1035.54450165 894.81993103 1034.76853943 C898.45185169 1027.52267884 898.45185169 1027.52267884 898.04606628 1019.62261963 C897.12130417 1017.40282209 896.08022162 1015.28302181 894.98046875 1013.14453125 C894.58425827 1012.33977859 894.18804779 1011.53502594 893.77983093 1010.70588684 C892.47476459 1008.067005 891.14426696 1005.4419007 889.8125 1002.81640625 C888.89145725 1000.96995941 887.97171399 999.12286382 887.05322266 997.27514648 C884.26969089 991.69235011 881.45008306 986.12826058 878.625 980.56640625 C877.81541007 978.96705194 877.00599348 977.36760987 876.19677734 975.76806641 C857.73155216 939.31625714 838.61188962 903.13476691 818.37451172 867.63574219 C816.52914097 864.39823157 814.68840983 861.15810649 812.84765625 857.91796875 C799.40599167 834.29211356 785.70095504 810.82055577 771.625 787.56640625 C771.07247559 786.65197754 770.51995117 785.73754883 769.95068359 784.79541016 C762.48873539 772.45313564 754.92970881 760.18031967 747.18310547 748.01464844 C745.52642828 745.41152108 743.87431556 742.80553248 742.22265625 740.19921875 C727.10325939 716.35935752 711.70872548 692.6780376 695.79544067 669.3584137 C694.69816207 667.67842131 693.72966437 665.91628392 692.77270508 664.15258789 C690.79284485 661.2621904 690.79284485 661.2621904 687.23925781 660.6574707 C685.85415365 660.55190891 684.46639246 660.47837314 683.078125 660.4296875 C682.30389191 660.37970108 681.52965881 660.32971466 680.73196411 660.2782135 C678.11378965 660.11699634 675.49541004 659.99788532 672.875 659.87890625 C670.99548355 659.77314083 669.11609041 659.66516506 667.23681641 659.55517578 C661.90069156 659.25258236 656.56318506 658.99158524 651.2244873 658.73895264 C647.43474908 658.55728631 643.64559537 658.36589734 639.85644531 658.17236328 C600.355531 656.1569505 560.88219621 654.40688015 521.32281613 654.39914918 C519.19899776 654.39841861 517.0751852 654.39624848 514.95136833 654.39365196 C507.42143236 654.38449232 499.89151362 654.38030387 492.36157227 654.38110352 C486.290256 654.38163217 480.21900481 654.37465444 474.14770508 654.3605957 C434.2585293 654.27039153 394.48335509 654.79776443 354.625 656.56640625 Z M820.625 674.56640625 C822.31251369 679.54013081 825.1104396 683.68462026 827.9375 688.06640625 C829.03464856 689.78595173 830.13097519 691.50602187 831.2265625 693.2265625 C831.79149414 694.11230957 832.35642578 694.99805664 832.93847656 695.91064453 C848.32931698 720.14653944 863.10979033 744.79842473 877.625 769.56640625 C878.18783691 770.52466309 878.75067383 771.48291992 879.33056641 772.47021484 C887.34275064 786.11572181 895.22703585 799.82771148 902.97314453 813.62597656 C904.66458444 816.63686959 906.36135676 819.64471532 908.05859375 822.65234375 C916.4363568 837.52401543 924.5769065 852.51420373 932.625 867.56640625 C934.64921364 871.34952764 936.67420387 875.13223309 938.69946289 878.91479492 C939.98892298 881.32316943 941.27695709 883.73228833 942.56420898 886.1418457 C945.8649603 892.31364066 949.19890166 898.46320722 952.625 904.56640625 C954.71564524 901.43043839 956.04305424 898.42000222 957.50390625 894.9453125 C957.78748993 894.27116806 958.07107361 893.59702362 958.36325073 892.90245056 C959.30939963 890.64654718 960.24923536 888.38809963 961.1875 886.12890625 C961.67961472 884.94603027 961.67961472 884.94603027 962.18167114 883.73925781 C980.32482787 840.04786347 996.58242821 795.59849002 1011.8125 750.81640625 C1012.17093994 749.76281921 1012.52937988 748.70923218 1012.89868164 747.62371826 C1020.66122241 728.94033396 1020.66122241 728.94033396 1024.625 709.56640625 C964.52010634 696.75273513 904.23583758 686.06001427 843.3828125 677.46484375 C842.12011536 677.28623306 840.85741821 677.10762238 839.55645752 676.92359924 C833.25350544 676.0417336 826.95479992 675.22952815 820.625 674.56640625 Z M141.625 674.56640625 C92.01172284 681.31606586 42.61987858 688.79473853 -6.5625 698.25390625 C-7.72063202 698.47624939 -8.87876404 698.69859253 -10.07199097 698.92767334 C-22.90706704 701.40195743 -35.71245919 704.00889216 -48.48828125 706.7734375 C-50.25222481 707.14670418 -50.25222481 707.14670418 -52.05180359 707.5275116 C-53.12823624 707.76440201 -54.20466888 708.00129242 -55.3137207 708.24536133 C-56.26898148 708.45244217 -57.22424225 708.65952301 -58.20845032 708.87287903 C-58.92341171 709.10174301 -59.63837311 709.33060699 -60.375 709.56640625 C-62.05455313 712.9255125 -60.06573208 716.26106309 -58.9375 719.65625 C-58.66639908 720.49041443 -58.39529816 721.32457886 -58.11598206 722.184021 C-57.21058367 724.9600984 -56.29341249 727.73210914 -55.375 730.50390625 C-54.73421825 732.45220503 -54.093513 734.40052897 -53.45288086 736.34887695 C-34.66019086 793.31342758 -13.13530734 849.08292981 9.625 904.56640625 C12.58566248 901.76690034 14.14901929 898.91679476 15.99609375 895.265625 C16.47328354 894.3298336 16.47328354 894.3298336 16.96011353 893.37513733 C17.64310132 892.03502605 18.32364704 890.6936679 19.00198364 889.35119629 C20.79763246 885.80009937 22.61414716 882.25970733 24.4296875 878.71875 C24.79133499 878.01259552 25.15298248 877.30644104 25.52558899 876.57888794 C30.37002688 867.13783482 35.47854896 857.845395 40.625 848.56640625 C41.20072754 847.52597168 41.77645508 846.48553711 42.36962891 845.41357422 C46.15268242 838.57834147 49.94905411 831.75063817 53.75341797 824.92724609 C55.54982091 821.70140695 57.3399689 818.4721712 59.12890625 815.2421875 C66.6914412 801.62017008 74.53190678 788.18382648 82.51408386 774.80397034 C84.98372059 770.65836123 87.42611738 766.49745349 89.85546875 762.328125 C99.21799522 746.26280909 108.79610137 730.35265669 118.625 714.56640625 C119.28838379 713.49922363 119.95176758 712.43204102 120.63525391 711.33251953 C122.60876254 708.15907927 124.58480802 704.98724095 126.5625 701.81640625 C127.18141113 700.82390869 127.80032227 699.83141113 128.43798828 698.80883789 C131.1192162 694.52198672 133.81543629 690.24949289 136.59765625 686.02734375 C137.03150635 685.36702148 137.46535645 684.70669922 137.91235352 684.02636719 C139.02737816 682.33912635 140.15377996 680.6594187 141.28125 678.98046875 C141.7246875 678.18382812 142.168125 677.3871875 142.625 676.56640625 C142.295 675.90640625 141.965 675.24640625 141.625 674.56640625 Z M1122.625 734.56640625 C1122.29245964 735.58948128 1122.29245964 735.58948128 1121.95320129 736.63322449 C1100.05241641 803.98442671 1100.05241641 803.98442671 1089.625 832.56640625 C1089.35163818 833.31708374 1089.07827637 834.06776123 1088.79663086 834.84118652 C1068.64929446 890.1030312 1046.74084141 945.07309208 1021.9103241 998.41082764 C1020.6697808 1001.0810103 1019.4405832 1003.75634461 1018.21231079 1006.43218994 C1017.33566457 1008.32879034 1016.44205487 1010.21672695 1015.54760742 1012.10498047 C1015.02013916 1013.25369629 1014.4926709 1014.40241211 1013.94921875 1015.5859375 C1013.47572998 1016.59760986 1013.00224121 1017.60928223 1012.5144043 1018.65161133 C1010.6899903 1024.63066121 1013.27511799 1029.54747694 1015.765625 1034.97265625 C1016.2429583 1036.03546814 1016.2429583 1036.03546814 1016.72993469 1037.11975098 C1017.41494298 1038.64320064 1018.10305691 1040.16525698 1018.79397583 1041.68603516 C1020.26644317 1044.92834813 1021.72248163 1048.17794994 1023.17945862 1051.42724609 C1023.92370015 1053.08675938 1024.66868903 1054.7459377 1025.41441345 1056.40478516 C1062.89312073 1139.80357814 1094.64302061 1225.55603165 1122.625 1312.56640625 C1137.22043946 1309.24157101 1151.42735062 1304.71440545 1165.6875 1300.19140625 C1166.94356049 1299.79412323 1168.19962097 1299.39684021 1169.4937439 1298.98751831 C1191.40264998 1292.05108172 1213.12784662 1284.69498692 1234.625 1276.56640625 C1235.26838318 1276.32337769 1235.91176636 1276.08034912 1236.574646 1275.82995605 C1245.30548265 1272.52451195 1253.97972093 1269.08900936 1262.625 1265.56640625 C1263.22985229 1265.32059814 1263.83470459 1265.07479004 1264.45788574 1264.8215332 C1302.90422894 1249.18750202 1340.84845102 1231.6623205 1376.625 1210.56640625 C1378.04087402 1209.73375244 1378.04087402 1209.73375244 1379.48535156 1208.88427734 C1405.93572536 1193.25207968 1431.60845102 1175.97441301 1454.625 1155.56640625 C1455.97885283 1154.39937541 1457.33296995 1153.232651 1458.6875 1152.06640625 C1460.00385592 1150.90409198 1461.31586177 1149.73684397 1462.625 1148.56640625 C1463.58664062 1147.70917969 1464.54828125 1146.85195312 1465.5390625 1145.96875 C1493.30694322 1120.94603106 1517.13923474 1089.86328601 1527.625 1053.56640625 C1527.94597656 1052.50292969 1528.26695312 1051.43945312 1528.59765625 1050.34375 C1533.34434613 1031.46737862 1532.64906469 1009.07834423 1526.625 990.56640625 C1526.2549585 989.40625 1526.2549585 989.40625 1525.87744141 988.22265625 C1512.69367182 947.82156493 1481.82611218 912.21533411 1448.625 886.56640625 C1447.45096432 885.59662482 1446.28067904 884.62229307 1445.11328125 883.64453125 C1415.90927269 859.26956116 1382.78791038 839.84135195 1349.30810547 822.00195312 C1346.96958474 820.75077006 1344.640864 819.48407207 1342.31640625 818.20703125 C1273.98263762 780.8996692 1197.47315578 755.0542414 1122.625 734.56640625 Z M-168.61328125 736.98828125 C-169.46840805 737.2441098 -170.32353485 737.49993835 -171.20457458 737.76351929 C-194.07292817 744.62075194 -216.79941186 751.79940113 -239.375 759.56640625 C-240.04408386 759.79587952 -240.71316772 760.02535278 -241.40252686 760.26177979 C-279.27015663 773.2542483 -316.29139979 788.32715451 -352.57275391 805.25927734 C-354.41197897 806.1171978 -356.25275498 806.97180269 -358.09521484 807.82275391 C-370.95093861 813.76214066 -383.42467465 820.23979902 -395.79394531 827.13330078 C-398.19653241 828.46731386 -400.60756814 829.78398513 -403.0234375 831.09375 C-426.87727636 844.07516368 -449.94180772 858.87266634 -471.375 875.56640625 C-472.48691544 876.42195782 -473.59889816 877.27742197 -474.7109375 878.1328125 C-478.29746946 880.90474571 -481.84143312 883.72741264 -485.375 886.56640625 C-486.40496094 887.38753906 -487.43492187 888.20867187 -488.49609375 889.0546875 C-505.62715397 903.05315032 -522.56153803 919.49965328 -535.375 937.56640625 C-536.19612232 938.65078916 -537.02042871 939.73276727 -537.84765625 940.8125 C-549.22834465 955.8754343 -557.8058388 972.54052484 -563.375 990.56640625 C-563.59800781 991.25782715 -563.82101562 991.94924805 -564.05078125 992.66162109 C-570.31853689 1012.75785295 -569.68627463 1036.57096365 -563.375 1056.56640625 C-563.06949219 1057.59749512 -563.06949219 1057.59749512 -562.7578125 1058.64941406 C-550.11004138 1100.86720564 -516.32172807 1136.89708972 -482.375 1163.56640625 C-481.03771251 1164.63405458 -479.70047706 1165.70176809 -478.36328125 1166.76953125 C-467.70543093 1175.2248774 -456.73674336 1183.0864995 -445.375 1190.56640625 C-444.5298584 1191.12295898 -443.6847168 1191.67951172 -442.81396484 1192.25292969 C-418.8706513 1207.92898147 -393.95624579 1221.77578336 -368.375 1234.56640625 C-367.77602905 1234.86589172 -367.17705811 1235.1653772 -366.55993652 1235.47393799 C-324.55111222 1256.4329444 -280.90814877 1273.68777281 -236.49755859 1288.84173584 C-234.33353589 1289.58056266 -232.17063136 1290.32259864 -230.0078125 1291.06494141 C-212.69168851 1296.99776018 -195.29572348 1302.59961185 -177.75 1307.81640625 C-176.93429535 1308.05932404 -176.1185907 1308.30224182 -175.27816772 1308.55252075 C-172.98610016 1309.23309796 -170.69268711 1309.90885051 -168.3984375 1310.58203125 C-167.71379929 1310.78450974 -167.02916107 1310.98698822 -166.32377625 1311.19560242 C-162.90572242 1312.22340361 -162.90572242 1312.22340361 -159.375 1312.56640625 C-159.1666301 1311.91988602 -158.95826019 1311.27336578 -158.74357605 1310.60725403 C-141.78314286 1258.02816292 -123.75087178 1205.9352892 -103.375 1154.56640625 C-102.896073 1153.3587561 -102.896073 1153.3587561 -102.4074707 1152.12670898 C-87.26707091 1114.00208782 -70.97276313 1076.37802628 -54.3034668 1038.90063477 C-53.99122162 1038.18827667 -53.67897644 1037.47591858 -53.35726929 1036.74197388 C-52.67104612 1035.22210053 -51.95079291 1033.71733899 -51.20547485 1032.22555542 C-48.9405213 1027.5774552 -47.68842525 1024.70175779 -49.375 1019.56640625 C-50.42449954 1016.95282868 -51.51560988 1014.42907075 -52.70703125 1011.8828125 C-53.41978342 1010.32504367 -54.13251002 1008.76726314 -54.84521484 1007.20947266 C-55.22554871 1006.3852179 -55.60588257 1005.56096313 -55.9977417 1004.71173096 C-58.07001766 1000.21306467 -60.11163501 995.70055516 -62.15234375 991.1875 C-62.58178284 990.23798462 -63.01122192 989.28846924 -63.45367432 988.31018066 C-100.50234014 906.15031997 -133.43067791 820.91219854 -159.375 734.56640625 C-162.3717381 734.56640625 -165.72666057 736.12259422 -168.61328125 736.98828125 Z M9.625 1143.56640625 C-37.412875 1238.22791639 -37.412875 1238.22791639 -61.375 1337.56640625 C-6.84202096 1349.62989446 47.97727552 1359.54191415 103.25 1367.56640625 C103.92637386 1367.66482189 104.60274773 1367.76323753 105.29961777 1367.86463547 C109.81604367 1368.52150018 114.33347764 1369.17102967 118.8515625 1369.81640625 C119.98266953 1369.97951797 121.11377655 1370.1426297 122.27915955 1370.3106842 C129.04902732 1371.26744501 135.80969488 1372.01891195 142.625 1372.56640625 C139.63710627 1366.28602768 136.15837451 1360.52107068 132.375 1354.69140625 C118.81079223 1333.56216645 105.87711908 1312.06927267 93.10827637 1290.45396423 C90.53502107 1286.0994011 87.94950748 1281.75236559 85.35546875 1277.41015625 C77.10486226 1263.58292433 69.11068073 1249.63746405 61.29541016 1235.56005859 C59.13114826 1231.68134195 56.93441912 1227.82156187 54.73681641 1223.96166992 C48.33558519 1212.71152061 42.15786602 1201.35143247 36.046875 1189.94140625 C32.35022324 1183.04098963 28.59760339 1176.17181407 24.83422852 1169.30761719 C22.50137024 1165.04303991 20.19540628 1160.76798027 17.94921875 1156.45703125 C17.53389893 1155.66111572 17.1185791 1154.8652002 16.69067383 1154.04516602 C15.9182786 1152.55881595 15.15087605 1151.06985662 14.3894043 1149.57788086 C12.68725709 1145.94116869 12.68725709 1145.94116869 9.625 1143.56640625 Z M952.625 1143.56640625 C947.5933439 1152.06397652 942.95460418 1160.72319507 938.4375 1169.50390625 C933.68106864 1178.73519265 928.72623766 1187.81912395 923.56933594 1196.83203125 C919.48342688 1203.99154156 915.56422518 1211.22931691 911.6875 1218.50390625 C906.02677315 1229.10174334 900.08202204 1239.50244843 893.98046875 1249.8515625 C891.35559381 1254.304649 888.78593607 1258.78542887 886.24291992 1263.28564453 C880.36070628 1273.69271512 874.20712916 1283.92183617 867.9777832 1294.12304688 C863.58661752 1301.31670076 859.25973214 1308.54395169 855 1315.81640625 C846.98627189 1329.46608024 838.54116874 1342.8472527 830.04296875 1356.19921875 C829.48617432 1357.07553955 828.92937988 1357.95186035 828.35571289 1358.85473633 C827.31251914 1360.49462993 826.2662996 1362.13260405 825.21655273 1363.76831055 C824.52541382 1364.85366089 824.52541382 1364.85366089 823.8203125 1365.9609375 C823.21727295 1366.90223511 823.21727295 1366.90223511 822.60205078 1367.86254883 C821.46633881 1369.71306068 821.46633881 1369.71306068 820.625 1372.56640625 C838.7290787 1370.59848495 856.74393708 1368.22255983 874.75 1365.50390625 C876.6705571 1365.21519653 876.6705571 1365.21519653 878.62991333 1364.9206543 C915.10246412 1359.42590286 951.39142013 1352.90428641 987.5625 1345.69140625 C988.92736038 1345.41949463 988.92736038 1345.41949463 990.3197937 1345.14208984 C1001.81188383 1342.84264434 1013.23452943 1340.32566308 1024.625 1337.56640625 C1022.1223362 1327.8155246 1019.05039526 1318.26018914 1015.9375 1308.69140625 C1015.65699799 1307.82871124 1015.37649597 1306.96601624 1015.0874939 1306.07717896 C997.14699017 1251.04773026 976.61360687 1196.68971509 953.625 1143.56640625 C953.295 1143.56640625 952.965 1143.56640625 952.625 1143.56640625 Z M-89.375 1434.56640625 C-104.65922009 1492.23717476 -115.85431886 1551.25733463 -122.375 1610.56640625 C-122.49007904 1611.61136261 -122.49007904 1611.61136261 -122.60748291 1612.6774292 C-123.69334605 1622.62713565 -124.59459748 1632.58787339 -125.375 1642.56640625 C-125.47941406 1643.8723877 -125.58382812 1645.17836914 -125.69140625 1646.52392578 C-132.33692844 1731.69578529 -131.30816485 1839.83253583 -72.9375 1908.50390625 C-52.70237002 1931.44568433 -24.00035689 1946.07969005 6.625 1948.56640625 C75.75464198 1952.09957733 139.86600809 1924.47799078 198.625 1890.56640625 C200.07676204 1889.73687261 201.52857975 1888.90743639 202.98046875 1888.078125 C222.86655584 1876.63392848 241.98072821 1863.92268283 260.625 1850.56640625 C261.39392578 1850.01887695 262.16285156 1849.47134766 262.95507812 1848.90722656 C274.02455027 1841.02385354 284.89060597 1832.89972081 295.625 1824.56640625 C296.2329541 1824.09493164 296.8409082 1823.62345703 297.46728516 1823.13769531 C310.88389134 1812.71365445 324.07186097 1802.00374019 336.98779297 1790.96533203 C338.72033326 1789.48494791 340.45584661 1788.00809267 342.19140625 1786.53125 C348.33833268 1781.2913014 354.42417363 1775.99885258 360.40625 1770.5703125 C362.41808393 1768.75328643 364.45160434 1766.96696233 366.5 1765.19140625 C371.41459207 1760.90714262 376.20231332 1756.48510769 380.99560547 1752.06640625 C382.66226259 1750.53210278 384.33277523 1749.00208458 386.00390625 1747.47265625 C391.39721888 1742.52755427 396.70435077 1737.54315163 401.8359375 1732.32421875 C404.63393224 1729.57509728 407.61245296 1727.07686212 410.625 1724.56640625 C409.33604283 1721.75288839 407.96231495 1719.63383555 405.83203125 1717.39453125 C405.01569214 1716.5279187 405.01569214 1716.5279187 404.18286133 1715.64379883 C403.31890747 1714.7392395 403.31890747 1714.7392395 402.4375 1713.81640625 C401.24916621 1712.55547277 400.06165837 1711.29376034 398.875 1710.03125 C398.3078125 1709.42909668 397.740625 1708.82694336 397.15625 1708.20654297 C394.82339299 1705.70779721 392.58659875 1703.13218134 390.35546875 1700.54296875 C388.19462793 1698.07483002 385.97062298 1695.66836616 383.75 1693.25390625 C380.44163086 1689.6311672 377.26487642 1685.94947734 374.1875 1682.12890625 C370.96554709 1678.13413924 367.61819898 1674.321112 364.125 1670.56640625 C359.8942428 1666.01396561 355.90224652 1661.32026865 352.00390625 1656.48046875 C349.26594626 1653.12658016 346.45273261 1649.84457022 343.625 1646.56640625 C338.52498438 1640.64554167 333.54750562 1634.63599116 328.625 1628.56640625 C327.2090368 1626.83666349 325.7923527 1625.10751064 324.375 1623.37890625 C323.6325 1622.47011719 322.89 1621.56132813 322.125 1620.625 C320.80872271 1619.01461701 319.49205019 1617.40455237 318.171875 1615.79736328 C311.43391712 1607.59398464 304.84131273 1599.30506532 298.42626953 1590.84643555 C294.93821076 1586.2555886 291.37687033 1581.73562106 287.75 1577.25390625 C281.7552731 1569.82982101 276.05479242 1562.19582714 270.3515625 1554.546875 C266.96046934 1550.00239044 263.51981421 1545.49809715 260.0625 1541.00390625 C248.48627282 1525.92453463 237.27974316 1510.55989607 226.4140625 1494.9609375 C225.86766113 1494.17928223 225.32125977 1493.39762695 224.75830078 1492.59228516 C223.68769099 1491.0595048 222.62081751 1489.52410642 221.55810547 1487.98583984 C221.07486816 1487.29441895 220.59163086 1486.60299805 220.09375 1485.890625 C219.66513672 1485.27276123 219.23652344 1484.65489746 218.79492188 1484.01831055 C217.12017342 1481.93990297 215.8743473 1481.60197125 213.24897766 1481.22750854 C211.74575203 1481.07597824 211.74575203 1481.07597824 210.2121582 1480.92138672 C208.49335197 1480.7447348 208.49335197 1480.7447348 206.73982239 1480.56451416 C205.48118881 1480.43881042 204.22255524 1480.31310669 202.92578125 1480.18359375 C200.91341447 1479.97696111 198.9010491 1479.7703141 196.8887434 1479.56308746 C194.73119186 1479.34124519 192.57348969 1479.12091064 190.41577148 1478.9006958 C105.08179371 1470.17046419 20.65679409 1456.90487925 -63.39013672 1439.78271484 C-72.04701883 1438.02030223 -80.71084883 1436.2926649 -89.375 1434.56640625 Z M1042.01171875 1436.40234375 C1040.15252723 1436.80662219 1038.29322813 1437.21040608 1036.43383789 1437.61376953 C1034.94281052 1437.9376767 1034.94281052 1437.9376767 1033.42166138 1438.26812744 C958.45522957 1454.50186502 882.73611165 1466.56523749 806.5625 1475.44140625 C805.30472748 1475.5881076 804.04695496 1475.73480896 802.75106812 1475.88595581 C791.23359282 1477.22122412 779.7194204 1478.52598905 768.1640625 1479.48828125 C767.40901932 1479.55278473 766.65397614 1479.61728821 765.87605286 1479.68374634 C762.59409322 1479.961582 759.31683912 1480.21431129 756.02905273 1480.41748047 C749.96373989 1480.84891103 749.96373989 1480.84891103 744.71484375 1483.671875 C744.02519531 1484.62707031 743.33554688 1485.58226562 742.625 1486.56640625 C742.20226807 1487.13101562 741.77953613 1487.695625 741.34399414 1488.27734375 C739.89406227 1490.24181739 738.50714222 1492.24121962 737.125 1494.25390625 C736.06335983 1495.77794307 735.00082979 1497.30136031 733.9375 1498.82421875 C733.39222656 1499.60700195 732.84695313 1500.38978516 732.28515625 1501.19628906 C724.17399701 1512.7761617 715.75879471 1524.13454498 707.2421875 1535.41796875 C705.49905272 1537.73372752 703.76443911 1540.05569532 702.03125 1542.37890625 C695.35876692 1551.31694221 688.62647342 1560.19990715 681.75439453 1568.9855957 C678.3799912 1573.30092927 675.04148937 1577.64029848 671.73364258 1582.00683594 C665.08607318 1590.77609883 658.16036891 1599.28347701 651.12890625 1607.74658203 C648.53530794 1610.88500441 646.00417224 1614.07241973 643.46875 1617.2578125 C637.67010232 1624.51840737 631.72646335 1631.65226638 625.70947266 1638.73193359 C622.82992259 1642.12536641 619.99317528 1645.54881608 617.1875 1649.00390625 C612.30566605 1654.99564206 607.27949992 1660.85758807 602.22949219 1666.70751953 C600.59124849 1668.60550911 598.955794 1670.50588011 597.3203125 1672.40625 C591.5720404 1679.07373918 585.7635346 1685.66890861 579.81640625 1692.16015625 C577.91128191 1694.25205748 576.04060939 1696.3660401 574.1875 1698.50390625 C570.76513469 1702.44407624 567.23120433 1706.27916624 563.69628906 1710.11791992 C559.93628157 1714.20826906 556.25182959 1718.35779854 552.625 1722.56640625 C554.22459655 1726.81849834 557.4418317 1729.38104182 560.75 1732.31640625 C561.9348038 1733.38668282 563.11840025 1734.45829746 564.30078125 1735.53125 C564.87393066 1736.05058105 565.44708008 1736.56991211 566.03759766 1737.10498047 C568.06512775 1738.97160538 570.00829929 1740.91119854 571.9375 1742.87890625 C574.89558171 1745.87977013 577.97564494 1748.65131017 581.171875 1751.39453125 C584.49611326 1754.33764666 587.70810705 1757.39499883 590.9375 1760.44140625 C596.11169208 1765.30999562 601.39484471 1769.92410447 606.94921875 1774.359375 C609.93997661 1776.82620447 612.78843606 1779.4262966 615.625 1782.06640625 C620.20422124 1786.32179225 624.91786878 1790.33964013 629.7890625 1794.26171875 C632.32739114 1796.32454781 634.82358988 1798.42512022 637.30957031 1800.55004883 C643.96374511 1806.23723272 650.77158283 1811.69284409 657.68701172 1817.05810547 C659.75702906 1818.66916205 661.8183542 1820.2909202 663.87890625 1821.9140625 C673.56223707 1829.52330415 683.39902531 1836.87263439 693.43554688 1844.00927734 C695.55937614 1845.51973487 697.67834619 1847.03680862 699.796875 1848.5546875 C725.74855215 1867.08327741 752.60401397 1884.33266668 780.625 1899.56640625 C781.65399414 1900.12682617 782.68298828 1900.68724609 783.74316406 1901.26464844 C818.66015821 1920.14474317 856.44559725 1936.97420712 895.625 1944.56640625 C896.57906738 1944.7567041 897.53313477 1944.94700195 898.51611328 1945.14306641 C935.76689219 1952.31274574 977.77869825 1951.87465697 1010.625 1930.56640625 C1015.15714787 1927.46835307 1019.41167654 1924.08208684 1023.625 1920.56640625 C1024.52089844 1919.82390625 1025.41679688 1919.08140625 1026.33984375 1918.31640625 C1072.18015657 1878.76236129 1084.46043699 1808.12546368 1089.23046875 1751.15234375 C1089.36731445 1749.29074909 1089.49807332 1747.42870349 1089.625 1745.56640625 C1089.75636353 1743.67075928 1089.75636353 1743.67075928 1089.89038086 1741.73681641 C1090.70109005 1729.22333654 1090.82676178 1716.72812321 1090.8125 1704.19140625 C1090.81156342 1703.11793945 1090.81062683 1702.04447266 1090.80966187 1700.93847656 C1090.65236534 1617.10485193 1076.27693148 1534.46589713 1057.34765625 1453.03125 C1057.10218552 1451.97303543 1056.85671478 1450.91482086 1056.60380554 1449.82453918 C1055.4020047 1444.69533007 1054.13021435 1439.61522909 1052.625 1434.56640625 C1049.02634653 1434.56640625 1045.51577709 1435.63095815 1042.01171875 1436.40234375 Z M349.625 1491.56640625 C352.11993739 1496.15368885 354.68012142 1500.04803735 358.125 1504.00390625 C362.07570629 1508.6172497 365.77049142 1513.36612337 369.375 1518.25390625 C374.21048984 1524.78994341 379.27676875 1531.09285117 384.47680664 1537.34155273 C388.16477458 1541.77721269 391.77359556 1546.26109627 395.3125 1550.81640625 C399.7357501 1556.50090112 404.33511339 1562.01137886 409.01171875 1567.48828125 C411.40382269 1570.29347945 413.73955851 1573.14103782 416.0625 1576.00390625 C420.01905526 1580.8664348 424.08686838 1585.62410086 428.18115234 1590.37036133 C431.24504617 1593.93027234 434.24082719 1597.53310405 437.1875 1601.19140625 C441.28801233 1606.24448769 445.64084757 1611.01949973 450.0625 1615.7890625 C452.72614137 1618.67602746 455.31648348 1621.61563959 457.890625 1624.58203125 C462.22525439 1629.54147209 466.66594183 1634.40896244 471.09375 1639.28515625 C471.8878125 1640.16171875 472.681875 1641.03828125 473.5 1641.94140625 C474.21929688 1642.73289062 474.93859375 1643.524375 475.6796875 1644.33984375 C477.625 1646.56640625 477.625 1646.56640625 479.2578125 1648.85546875 C479.93457031 1649.70238281 479.93457031 1649.70238281 480.625 1650.56640625 C482.69437667 1650.8010428 482.69437667 1650.8010428 483.9296875 1649.2734375 C484.44789063 1648.64824219 484.96609375 1648.02304688 485.5 1647.37890625 C488.73257106 1643.5671662 492.08651467 1639.9020083 495.5 1636.25390625 C499.97357469 1631.45051778 504.17223814 1626.50028335 508.28125 1621.37890625 C510.95708492 1618.16790434 513.76862569 1615.11615992 516.625 1612.06640625 C521.12463556 1607.26099083 525.3560367 1602.31479118 529.48046875 1597.1796875 C531.62374956 1594.56793002 533.8488033 1592.06275323 536.125 1589.56640625 C540.35184222 1584.91760732 544.32982292 1580.10354784 548.28076172 1575.21972656 C550.36925258 1572.65102695 552.47851727 1570.09956185 554.5859375 1567.54638672 C565.2466869 1554.6307026 575.84838586 1541.67390422 586.14453125 1528.46484375 C587.76054814 1526.3925899 589.38031817 1524.32329658 591 1522.25390625 C596.8920272 1514.71487268 602.74203179 1507.14596967 608.5 1499.50390625 C609.01812256 1498.81893066 609.53624512 1498.13395508 610.07006836 1497.42822266 C612.50851704 1494.75321753 612.50851704 1494.75321753 613.625 1491.56640625 C602.82084373 1491.44253694 592.04785943 1491.61816522 581.25 1492.00390625 C513.64841935 1494.33411867 445.94907125 1494.28841281 378.35058594 1491.87353516 C368.77198811 1491.5389534 359.208301 1491.45653401 349.625 1491.56640625 Z " fill="#60DAFB" transform="translate(668.375,-0.56640625)"/>
<path d="M0 0 C0.5573584 0.40186523 1.1147168 0.80373047 1.68896484 1.21777344 C10.36925878 7.53025207 18.26256381 14.57455721 26 22 C27.2375 23.175625 27.2375 23.175625 28.5 24.375 C56.07227362 51.18137713 73.68055625 86.86656679 82.1875 124.0625 C82.34250977 124.73361816 82.49751953 125.40473633 82.65722656 126.09619141 C85.6818651 140.02336687 86.40584701 153.74428681 86.375 167.9375 C86.37478851 168.8384137 86.37457703 169.73932739 86.37435913 170.6675415 C86.34057711 185.12016264 85.34915767 198.89611088 82 213 C81.81808105 213.81936035 81.63616211 214.6387207 81.44873047 215.48291016 C75.82538832 240.62462664 65.26996658 265.18803783 50 286 C49.61489258 286.5249707 49.22978516 287.04994141 48.83300781 287.59082031 C43.88047772 294.29499864 38.68250244 300.66682394 33.0078125 306.78125 C31.60649322 308.32978959 30.26482107 309.93349309 28.97265625 311.57421875 C27.19769243 313.75689704 25.45416789 315.50308247 23.3125 317.3125 C21.21078026 319.10030167 19.12604591 320.88178303 17.11328125 322.76953125 C4.31411138 334.71374675 -10.48279448 344.03573876 -26 352 C-26.61343262 352.32162109 -27.22686523 352.64324219 -27.85888672 352.97460938 C-74.81856888 377.38479606 -132.02102951 379.77844532 -182.05249023 364.35083008 C-210.45440058 355.14307311 -235.90377556 340.31190693 -257.78125 320.0078125 C-259.32978959 318.60649322 -260.93349309 317.26482107 -262.57421875 315.97265625 C-264.75689704 314.19769243 -266.50308247 312.45416789 -268.3125 310.3125 C-270.10030167 308.21078026 -271.88178303 306.12604591 -273.76953125 304.11328125 C-303.86832751 271.86004484 -323.95582194 224.31919483 -324.203125 179.98828125 C-324.21018463 179.14616592 -324.21724426 178.3040506 -324.22451782 177.43641663 C-324.45244581 142.25838359 -324.45244581 142.25838359 -321 127 C-320.80132324 126.09266113 -320.60264648 125.18532227 -320.39794922 124.25048828 C-313.62416912 94.08560237 -300.35719951 65.18850054 -281 41 C-280.38584229 40.23139648 -280.38584229 40.23139648 -279.75927734 39.44726562 C-269.11660253 26.23230629 -257.34067262 14.37011535 -243.69287109 4.26611328 C-242.09253032 3.06920424 -240.52359849 1.83062936 -238.95703125 0.58984375 C-215.85459923 -17.05984034 -187.3576287 -28.26624749 -159 -34 C-158.19820312 -34.16371094 -157.39640625 -34.32742188 -156.5703125 -34.49609375 C-103.0233465 -44.84622616 -44.0879927 -32.02963059 0 0 Z " fill="#60DAFB" transform="translate(1269,855)"/>
</svg>
